<svg width="552" height="513" viewBox="0 0 552 513" fill="none" xmlns="http://www.w3.org/2000/svg">
<g clip-path="url(#clip0_99_1346)">
<path d="M285.454 0H125.052C100.104 0 79.8804 22.6194 79.8804 50.5218V460.474C79.8804 488.377 100.104 510.996 125.052 510.996H285.454C310.401 510.996 330.625 488.377 330.625 460.474V50.5218C330.625 22.6194 310.401 0 285.454 0Z" fill="#3F3D56"/>
<path d="M326.395 50.5253V460.475C326.383 472.615 322.065 484.255 314.39 492.839C306.714 501.424 296.308 506.253 285.453 506.267H125.053C114.199 506.253 103.792 501.424 96.1166 492.839C88.4412 484.255 84.1236 472.615 84.1111 460.475V50.5253C84.1237 38.3848 88.4412 26.7457 96.1166 18.1611C103.792 9.57652 114.199 4.74751 125.053 4.73346H146.028V12.8371C146.028 16.5058 147.331 20.0242 149.651 22.6183C151.97 25.2125 155.116 26.67 158.396 26.6702H252.11C255.39 26.67 258.536 25.2125 260.855 22.6183C263.175 20.0242 264.478 16.5058 264.478 12.8371V4.73346H285.453C296.308 4.74752 306.714 9.57652 314.39 18.1611C322.065 26.7457 326.383 38.3848 326.395 50.5253Z" fill="white"/>
<path d="M257.771 225.495C248.473 220.806 238.108 231.419 245.005 241.35C221.702 265.09 187.1 273.444 156.976 263.513C156.233 265.517 155.451 267.499 154.651 269.481C142.68 299.133 125.533 325.811 104.215 347.948C132.282 321.842 166.865 343.898 196.608 352.487C198.632 352.874 200.512 353.913 202.016 355.476C203.521 357.039 204.586 359.058 205.081 361.287C205.577 363.516 205.481 365.858 204.805 368.027C204.129 370.196 202.903 372.097 201.276 373.499C197.488 371.931 193.569 370.788 189.577 370.09C187.694 369.77 185.768 370.11 184.065 371.065C182.362 372.019 180.966 373.54 180.067 375.419C179.169 377.297 178.813 379.441 179.049 381.555C179.285 383.669 180.1 385.649 181.384 387.224C150.231 403.932 111.475 397.773 84.7419 373.776V359.519C113.038 335.219 135.609 303.567 150.497 267.307C155.731 254.572 159.964 241.352 163.149 227.796C166.63 212.971 168.774 197.793 169.551 182.489C164.426 165.59 165.283 145.749 173.819 130.405C177.344 137.565 187.5 139.42 188.567 129.489C188.796 125.482 188.967 121.476 189.177 117.491C227.456 114.187 220.921 174.135 174.086 183.512C173.173 198.91 170.94 214.175 167.417 229.096C167.093 230.588 166.731 232.058 166.35 233.529C174.909 220.45 186.122 209.83 199.066 202.543C211.432 196.064 225.837 194.679 239.575 192.186C256.285 189.138 268.118 210.492 257.771 225.495Z" fill="#F2F2F2"/>
<path d="M78.7268 103.662C77.9111 103.661 77.1291 103.298 76.5523 102.653C75.9755 102.008 75.6511 101.133 75.6501 100.221V93.3386C75.6501 92.426 75.9743 91.5507 76.5513 90.9054C77.1282 90.2601 77.9108 89.8975 78.7268 89.8975C79.5427 89.8975 80.3253 90.2601 80.9023 90.9054C81.4792 91.5507 81.8034 92.426 81.8034 93.3386V100.221C81.8025 101.133 81.478 102.008 80.9012 102.653C80.3245 103.298 79.5425 103.661 78.7268 103.662Z" fill="#3F3D56"/>
<path d="M78.7268 138.951C77.9111 138.95 77.1291 138.587 76.5523 137.942C75.9755 137.297 75.6511 136.422 75.6501 135.51V116.566C75.6501 115.653 75.9743 114.778 76.5513 114.132C77.1282 113.487 77.9108 113.125 78.7268 113.125C79.5427 113.125 80.3253 113.487 80.9023 114.132C81.4792 114.778 81.8034 115.653 81.8034 116.566V135.51C81.8025 136.422 81.478 137.297 80.9012 137.942C80.3245 138.587 79.5425 138.95 78.7268 138.951Z" fill="#3F3D56"/>
<path d="M78.7268 167.321C77.9111 167.32 77.1291 166.957 76.5523 166.312C75.9755 165.667 75.6511 164.792 75.6501 163.88V144.936C75.6501 144.023 75.9743 143.148 76.5513 142.503C77.1282 141.857 77.9108 141.495 78.7268 141.495C79.5427 141.495 80.3253 141.857 80.9023 142.503C81.4792 143.148 81.8034 144.023 81.8034 144.936V163.88C81.8025 164.792 81.478 165.667 80.9012 166.312C80.3245 166.957 79.5425 167.32 78.7268 167.321Z" fill="#3F3D56"/>
<path d="M331.01 151.836C330.194 151.835 329.412 151.472 328.835 150.827C328.258 150.182 327.934 149.308 327.933 148.395V102.17C327.933 101.258 328.257 100.383 328.834 99.7373C329.411 99.092 330.194 98.7294 331.01 98.7294C331.826 98.7294 332.608 99.092 333.185 99.7373C333.762 100.383 334.086 101.258 334.086 102.17V148.395C334.085 149.308 333.761 150.182 333.184 150.827C332.607 151.472 331.825 151.835 331.01 151.836Z" fill="#3F3D56"/>
<path d="M211.862 15.7822H188.018C187.508 15.7822 187.019 15.5556 186.658 15.1523C186.298 14.749 186.095 14.2019 186.095 13.6316C186.095 13.0612 186.298 12.5141 186.658 12.1108C187.019 11.7075 187.508 11.4809 188.018 11.4809H211.862C212.372 11.4809 212.861 11.7075 213.222 12.1108C213.582 12.5141 213.785 13.0612 213.785 13.6316C213.785 14.2019 213.582 14.749 213.222 15.1523C212.861 15.5556 212.372 15.7822 211.862 15.7822Z" fill="white"/>
<path d="M224.168 15.3521C225.018 15.3521 225.707 14.5818 225.707 13.6315C225.707 12.6813 225.018 11.911 224.168 11.911C223.319 11.911 222.63 12.6813 222.63 13.6315C222.63 14.5818 223.319 15.3521 224.168 15.3521Z" fill="white"/>
<path d="M152.847 129.495H126.133C122.435 129.491 118.889 127.846 116.275 124.921C113.66 121.997 112.189 118.031 112.185 113.895V84.0164C112.189 79.8805 113.66 75.9153 116.275 72.9908C118.889 70.0663 122.435 68.4212 126.133 68.4166H152.847C156.545 68.4212 160.09 70.0663 162.705 72.9908C165.32 75.9153 166.791 79.8805 166.795 84.0164V113.895C166.791 118.031 165.32 121.996 162.705 124.921C160.09 127.846 156.545 129.491 152.847 129.495ZM126.133 70.1371C122.843 70.1413 119.688 71.605 117.362 74.2069C115.036 76.8089 113.727 80.3367 113.723 84.0164V113.895C113.727 117.575 115.036 121.103 117.362 123.705C119.688 126.307 122.843 127.77 126.133 127.775H152.847C156.137 127.77 159.291 126.307 161.618 123.705C163.944 121.103 165.253 117.575 165.257 113.895V84.0164C165.253 80.3367 163.944 76.8089 161.618 74.2069C159.291 71.6049 156.137 70.1413 152.847 70.1371L126.133 70.1371Z" fill="#E6E6E6"/>
<path d="M218.61 129.925H191.895C188.198 129.921 184.652 128.276 182.038 125.351C179.423 122.427 177.952 118.461 177.948 114.326V84.4465C177.952 80.3106 179.423 76.3455 182.038 73.4209C184.652 70.4964 188.198 68.8514 191.895 68.8467H218.61C222.308 68.8513 225.853 70.4964 228.468 73.4209C231.083 76.3454 232.554 80.3106 232.558 84.4465V114.326C232.554 118.461 231.083 122.427 228.468 125.351C225.853 128.276 222.308 129.921 218.61 129.925ZM191.895 70.5672C188.605 70.5715 185.451 72.0351 183.125 74.637C180.798 77.239 179.49 80.7668 179.486 84.4465V114.326C179.49 118.005 180.798 121.533 183.125 124.135C185.451 126.737 188.605 128.201 191.895 128.205H218.61C221.9 128.201 225.054 126.737 227.381 124.135C229.707 121.533 231.016 118.005 231.019 114.326V84.4465C231.016 80.7668 229.707 77.239 227.381 74.637C225.054 72.0351 221.9 70.5714 218.61 70.5672L191.895 70.5672Z" fill="#E6E6E6"/>
<path d="M284.373 130.355H257.658C253.96 130.351 250.415 128.706 247.8 125.781C245.185 122.857 243.715 118.892 243.71 114.756V84.8766C243.715 80.7407 245.185 76.7756 247.8 73.8511C250.415 70.9265 253.96 69.2815 257.658 69.2768H284.373C288.071 69.2815 291.616 70.9265 294.231 73.851C296.845 76.7756 298.316 80.7407 298.32 84.8766V114.756C298.316 118.892 296.845 122.857 294.231 125.781C291.616 128.706 288.071 130.351 284.373 130.355ZM257.658 70.9973C254.368 71.0016 251.214 72.4652 248.888 75.0671C246.561 77.6691 245.253 81.1969 245.249 84.8766V114.756C245.253 118.435 246.561 121.963 248.888 124.565C251.214 127.167 254.368 128.631 257.658 128.635H284.373C287.663 128.631 290.817 127.167 293.143 124.565C295.47 121.963 296.778 118.435 296.782 114.756V84.8766C296.778 81.1969 295.47 77.669 293.143 75.0671C290.817 72.4651 287.663 71.0015 284.373 70.9973L257.658 70.9973Z" fill="#E6E6E6"/>
<path d="M152.847 214.661H126.133C122.435 214.657 118.889 213.012 116.275 210.087C113.66 207.163 112.189 203.197 112.185 199.061V169.182C112.189 165.047 113.66 161.081 116.275 158.157C118.889 155.232 122.435 153.587 126.133 153.583H152.847C156.545 153.587 160.09 155.232 162.705 158.157C165.32 161.081 166.791 165.047 166.795 169.182V199.061C166.791 203.197 165.32 207.163 162.705 210.087C160.09 213.012 156.545 214.657 152.847 214.661ZM126.133 155.303C122.843 155.307 119.688 156.771 117.362 159.373C115.036 161.975 113.727 165.503 113.723 169.182V199.061C113.727 202.741 115.036 206.269 117.362 208.871C119.688 211.473 122.843 212.937 126.133 212.941H152.847C156.137 212.937 159.291 211.473 161.618 208.871C163.944 206.269 165.253 202.741 165.257 199.061V169.182C165.253 165.503 163.944 161.975 161.618 159.373C159.291 156.771 156.137 155.307 152.847 155.303L126.133 155.303Z" fill="#E6E6E6"/>
<path d="M218.61 215.091H191.895C188.198 215.087 184.652 213.442 182.038 210.517C179.423 207.593 177.952 203.627 177.948 199.492V169.613C177.952 165.477 179.423 161.511 182.038 158.587C184.652 155.662 188.198 154.017 191.895 154.013H218.61C222.308 154.017 225.853 155.662 228.468 158.587C231.083 161.511 232.554 165.477 232.558 169.613V199.492C232.554 203.627 231.083 207.593 228.468 210.517C225.853 213.442 222.308 215.087 218.61 215.091ZM191.895 155.733C188.605 155.737 185.451 157.201 183.125 159.803C180.798 162.405 179.49 165.933 179.486 169.613V199.492C179.49 203.171 180.798 206.699 183.125 209.301C185.451 211.903 188.605 213.367 191.895 213.371H218.61C221.9 213.367 225.054 211.903 227.381 209.301C229.707 206.699 231.016 203.171 231.019 199.492V169.613C231.016 165.933 229.707 162.405 227.381 159.803C225.054 157.201 221.9 155.737 218.61 155.733L191.895 155.733Z" fill="#E6E6E6"/>
<path d="M284.373 215.522H257.658C253.96 215.517 250.415 213.872 247.8 210.947C245.185 208.023 243.715 204.058 243.71 199.922V170.043C243.715 165.907 245.185 161.942 247.8 159.017C250.415 156.093 253.96 154.448 257.658 154.443H284.373C288.071 154.448 291.616 156.093 294.231 159.017C296.845 161.942 298.316 165.907 298.32 170.043V199.922C298.316 204.058 296.845 208.023 294.231 210.947C291.616 213.872 288.071 215.517 284.373 215.522ZM257.658 156.163C254.368 156.168 251.214 157.631 248.888 160.233C246.561 162.835 245.253 166.363 245.249 170.043V199.922C245.253 203.601 246.561 207.129 248.888 209.731C251.214 212.333 254.368 213.797 257.658 213.801H284.373C287.663 213.797 290.817 212.333 293.143 209.731C295.47 207.129 296.778 203.601 296.782 199.922V170.043C296.778 166.363 295.47 162.835 293.143 160.233C290.817 157.631 287.663 156.168 284.373 156.163L257.658 156.163Z" fill="#E6E6E6"/>
<path d="M152.847 472.74H126.133C122.639 472.736 119.289 471.182 116.818 468.418C114.348 465.655 112.958 461.909 112.954 458.001V428.122C112.958 424.214 114.348 420.468 116.818 417.704C119.289 414.941 122.639 413.387 126.133 413.382H152.847C156.341 413.387 159.691 414.941 162.162 417.704C164.632 420.468 166.022 424.214 166.026 428.122V458.001C166.022 461.909 164.632 465.655 162.162 468.418C159.691 471.182 156.341 472.736 152.847 472.74Z" fill="#078080"/>
<path d="M218.61 473.171H191.896C188.402 473.166 185.052 471.612 182.581 468.849C180.111 466.085 178.721 462.339 178.717 458.431V428.552C178.721 424.644 180.111 420.898 182.581 418.134C185.052 415.371 188.402 413.817 191.896 413.812H218.61C222.104 413.817 225.454 415.371 227.925 418.134C230.395 420.898 231.785 424.644 231.789 428.552V458.431C231.785 462.339 230.395 466.085 227.925 468.849C225.454 471.612 222.104 473.166 218.61 473.171Z" fill="#E6E6E6"/>
<path d="M284.373 473.601H257.658C254.164 473.596 250.815 472.042 248.344 469.279C245.873 466.515 244.484 462.769 244.48 458.861V428.982C244.484 425.074 245.873 421.328 248.344 418.565C250.815 415.801 254.164 414.247 257.658 414.243H284.373C287.867 414.247 291.217 415.801 293.687 418.565C296.158 421.328 297.548 425.074 297.552 428.982V458.861C297.548 462.769 296.158 466.515 293.687 469.279C291.217 472.042 287.867 473.596 284.373 473.601Z" fill="#E6E6E6"/>
<path d="M191.408 388.865C193.532 388.865 195.254 386.939 195.254 384.563C195.254 382.188 193.532 380.262 191.408 380.262C189.284 380.262 187.562 382.188 187.562 384.563C187.562 386.939 189.284 388.865 191.408 388.865Z" fill="#CCCCCC"/>
<path d="M205.253 388.865C207.377 388.865 209.099 386.939 209.099 384.563C209.099 382.188 207.377 380.262 205.253 380.262C203.129 380.262 201.407 382.188 201.407 384.563C201.407 386.939 203.129 388.865 205.253 388.865Z" fill="#E6E6E6"/>
<path d="M219.098 388.865C221.222 388.865 222.944 386.939 222.944 384.563C222.944 382.188 221.222 380.262 219.098 380.262C216.974 380.262 215.252 382.188 215.252 384.563C215.252 386.939 216.974 388.865 219.098 388.865Z" fill="#E6E6E6"/>
<path d="M297.234 482.633H113.478C109.288 482.628 105.271 480.764 102.308 477.451C99.3455 474.137 97.6789 469.644 97.6741 464.958V421.165C97.6789 416.479 99.3455 411.986 102.308 408.672C105.271 405.358 109.288 403.495 113.478 403.489H297.234C301.424 403.495 305.441 405.358 308.403 408.672C311.366 411.986 313.033 416.479 313.038 421.165V464.958C313.033 469.644 311.366 474.137 308.403 477.451C305.441 480.764 301.424 482.628 297.234 482.633ZM113.478 405.21C109.696 405.215 106.07 406.897 103.396 409.888C100.721 412.879 99.2167 416.935 99.2124 421.165V464.958C99.2167 469.188 100.721 473.243 103.396 476.235C106.07 479.226 109.696 480.908 113.478 480.913H297.234C301.016 480.908 304.642 479.226 307.316 476.235C309.991 473.243 311.495 469.188 311.499 464.958V421.165C311.495 416.935 309.991 412.879 307.316 409.888C304.642 406.897 301.016 405.215 297.234 405.21H113.478Z" fill="#E6E6E6"/>
<path d="M456.97 111.565C455.437 111.83 454.057 112.755 453.124 114.142C452.191 115.528 451.778 117.267 451.974 118.989C452.019 119.338 452.089 119.682 452.185 120.019L435.65 134.096L439.085 145.994L459.871 123.97C461.087 123.419 462.106 122.433 462.768 121.167C463.43 119.9 463.699 118.424 463.532 116.968C463.43 116.141 463.184 115.345 462.807 114.624C462.429 113.904 461.929 113.273 461.334 112.769C460.739 112.265 460.061 111.897 459.339 111.685C458.617 111.474 457.864 111.424 457.125 111.538C457.073 111.546 457.022 111.555 456.97 111.565Z" fill="#FFB6B6"/>
<path d="M342.907 176.834C343.013 179.749 344.133 182.503 346.029 184.507C347.924 186.511 350.444 187.608 353.053 187.563L384.272 187.029L423.749 166.551C423.749 166.551 436.623 154.329 440.213 154.042C443.802 153.754 445.713 157.489 444.9 154.079C444.087 150.668 443.01 148.385 445.769 148.704C448.528 149.022 448.089 142.729 448.699 140.348C449.309 137.968 440.918 129.376 440.918 129.376C440.918 129.376 434.871 129.507 434.475 130.396C434.08 131.284 435.457 133.523 432.208 133.428C428.958 133.332 426.477 133.485 426.375 135.172C426.274 136.86 426.51 138.175 424.71 139.482C422.909 140.789 414.781 147.527 414.781 147.527L350.471 165.527C348.24 166.152 346.27 167.617 344.892 169.677C343.514 171.736 342.813 174.264 342.907 176.834Z" fill="#3F3D56"/>
<path d="M359.623 494.474H368.112L372.152 457.849H359.623V494.474Z" fill="#FFB6B6"/>
<path d="M356.852 487.971L370.415 487.065V493.565L383.31 503.525C383.947 504.017 384.427 504.724 384.679 505.542C384.931 506.361 384.943 507.248 384.713 508.074C384.483 508.901 384.022 509.623 383.399 510.136C382.775 510.649 382.021 510.926 381.247 510.926H365.1L362.317 504.497L361.23 510.926H355.142L356.852 487.971Z" fill="#2F2E41"/>
<path d="M373.801 259.825L378.416 227.996L346.112 219.393V252.368L373.801 259.825Z" fill="#FFB6B6"/>
<path d="M333.42 290.365L349.214 405.19C349.214 405.19 348.285 455.095 355.467 466.498L357.264 478.762H373.468C373.468 478.762 373.17 471.23 374.831 466.824C376.493 462.417 378.8 465.337 376.493 461.296C374.185 457.256 373.939 457.703 374.831 454.468C375.724 451.234 376.245 304.579 376.245 304.579L333.42 290.365Z" fill="#2F2E41"/>
<path d="M343.04 438.081L347.96 445.819L376.988 428.279L369.728 416.858L343.04 438.081Z" fill="#FFB6B6"/>
<path d="M346.174 431.787L354.693 443.625L349.957 447.392L350.171 464.918C350.182 465.783 349.945 466.63 349.495 467.334C349.045 468.039 348.405 468.564 347.67 468.832C346.934 469.101 346.14 469.1 345.405 468.829C344.67 468.558 344.032 468.032 343.583 467.326L334.226 452.607L337.298 446.345L331.984 449.08L328.456 443.53L346.174 431.787Z" fill="#2F2E41"/>
<path d="M344.573 233.157L344.353 246.48C344.353 246.48 315.157 275.135 337.172 310.063C337.172 310.063 339.946 320.119 343.798 319.651C347.65 319.183 349.611 321.587 348.63 323.826C347.65 326.066 385.078 353.309 385.078 353.309C385.078 353.309 360.409 414.141 354.572 427.577L358.418 441.341C358.418 441.341 356.381 446.665 359.514 444.648C362.648 442.631 361.106 442.356 364.569 441.634C368.032 440.911 372.3 439.251 372.089 438.36C371.878 437.47 415.151 362.587 415.151 362.587C415.151 362.587 425.519 350.251 417.927 335.793C416.874 335.528 416.846 335.793 416.846 335.793L379.736 288.527L375.339 257.245L344.573 233.157Z" fill="#2F2E41"/>
<path d="M377.958 147.755L359.265 137.956L353.669 148.847C353.669 148.847 338.638 172.837 338.42 190.144C338.202 207.451 340.869 212.597 340.869 212.597C340.869 212.597 334.389 218.016 337.629 221.329C340.869 224.641 348.043 226.07 342.533 227.506C337.024 228.942 338.42 243.48 344.573 246.061C350.726 248.642 383.772 248.619 383.772 248.619C383.475 247.492 383.453 246.297 383.709 245.157C383.965 244.017 384.488 242.975 385.226 242.138C387.788 239.266 390.095 241.327 387.788 236.855C385.48 232.383 381.635 234.964 384.711 228.942C387.788 222.921 387.787 221.121 387.787 221.121C387.787 221.121 395.28 206.668 384.612 193.288C373.943 179.907 384.52 192.371 384.52 192.371L376.891 163.779L377.958 147.755Z" fill="#3F3D56"/>
<path d="M453.69 232.297H426.975C423.481 232.292 420.132 230.738 417.661 227.975C415.19 225.212 413.801 221.465 413.797 217.557V187.678C413.801 183.77 415.19 180.024 417.661 177.261C420.132 174.497 423.481 172.943 426.975 172.939H453.69C457.184 172.943 460.534 174.497 463.004 177.261C465.475 180.024 466.865 183.77 466.869 187.678V217.557C466.865 221.465 465.475 225.212 463.004 227.975C460.534 230.738 457.184 232.292 453.69 232.297Z" fill="#F45D48"/>
<path d="M467.535 118.742H440.82C437.326 118.738 433.977 117.183 431.506 114.42C429.035 111.657 427.646 107.91 427.642 104.003V74.1236C427.646 70.2158 429.035 66.4692 431.506 63.706C433.977 60.9427 437.326 59.3884 440.82 59.384H467.535C471.029 59.3884 474.379 60.9427 476.849 63.706C479.32 66.4692 480.71 70.2158 480.714 74.1236V104.003C480.71 107.91 479.32 111.657 476.849 114.42C474.379 117.183 471.029 118.738 467.535 118.742Z" fill="#078080"/>
<path d="M395.242 136.357L395.258 136.355C396.12 136.241 396.907 135.748 397.444 134.985C397.982 134.222 398.226 133.252 398.124 132.287L395.983 111.991C395.603 108.354 394.573 104.84 392.954 101.658C389.786 95.4485 384.598 90.8459 378.471 88.8093C375.308 87.7622 371.989 87.4423 368.712 87.8687C355.309 89.6132 351.094 93.8221 347.267 118.172C343.44 142.522 349.411 138.499 349.411 138.499C349.462 138.988 349.6 139.461 349.818 139.889C350.245 140.724 350.944 141.342 351.768 141.614C352.191 141.753 352.635 141.796 353.073 141.739C369.447 142.437 386.007 143.334 395.244 136.357L395.242 136.357Z" fill="#2F2E41"/>
<path d="M359.911 109.692C358.579 113.385 358.255 117.436 358.98 121.334C359.706 125.233 361.447 128.803 363.986 131.595C366.524 134.387 369.746 136.274 373.243 137.02C376.74 137.765 380.356 137.335 383.635 135.783C385.807 134.763 387.776 133.272 389.429 131.396C391.082 129.519 392.386 127.295 393.264 124.851C394.593 121.16 394.914 117.112 394.188 113.218C393.463 109.323 391.722 105.756 389.187 102.966C386.651 100.176 383.433 98.2888 379.94 97.5413C376.446 96.7938 372.833 97.22 369.556 98.766C367.381 99.7827 365.409 101.272 363.754 103.148C362.098 105.024 360.792 107.248 359.911 109.693L359.911 109.692Z" fill="#FFB6B6"/>
<path d="M401.913 112.883C401.612 110.007 400.797 107.228 399.517 104.711C398.076 98.1492 395.218 92.5774 388.065 94.5523C385.579 93.7307 382.971 93.4766 380.396 93.8051L376.762 94.2639C376.721 94.269 376.68 94.2743 376.64 94.2797C371.561 94.9533 366.929 97.8559 363.763 102.349C360.598 106.842 359.158 112.558 359.76 118.238L359.803 118.645L367.49 117.666L369.247 109.134L370.636 117.267L374.606 116.763L375.492 112.458L376.193 116.559C383.056 120.865 391.869 119.067 401.953 113.291L401.913 112.883Z" fill="#2F2E41"/>
<path d="M381.44 137.53C381.63 138.17 381.655 138.857 381.513 139.512C381.442 139.847 381.33 140.17 381.179 140.47C381.05 140.726 380.894 140.964 380.715 141.179C380.184 141.814 379.468 142.217 378.696 142.315C378.648 142.321 378.6 142.326 378.551 142.329C378.503 142.333 378.454 142.336 378.406 142.337C378.357 142.339 378.308 142.339 378.259 142.338C378.21 142.337 378.161 142.335 378.111 142.332L375.326 142.137L370.623 133.657L371.49 141.878L358.828 141.018L355.149 106.131L375.946 103.5L375.503 104.235C374.033 106.7 373.2 109.57 373.096 112.531C373.003 115.527 373.37 118.519 374.18 121.377C374.981 124.271 376.027 127.073 377.307 129.743C378.428 132.111 379.671 134.404 381.028 136.611C381.203 136.894 381.342 137.204 381.44 137.53Z" fill="#2F2E41"/>
<path d="M430.395 169.737C428.951 170.373 427.787 171.615 427.149 173.197C426.512 174.779 426.452 176.577 426.981 178.208C427.093 178.538 427.23 178.857 427.389 179.161L414.029 196.963L419.72 207.723L435.665 181.124C436.742 180.288 437.542 179.075 437.939 177.677C438.336 176.278 438.308 174.772 437.859 173.394C437.597 172.612 437.2 171.896 436.69 171.285C436.18 170.675 435.568 170.184 434.889 169.838C434.209 169.493 433.475 169.3 432.729 169.272C431.983 169.244 431.239 169.38 430.54 169.673C430.491 169.694 430.443 169.715 430.395 169.737Z" fill="#FFB6B6"/>
<path d="M360.421 166.166C359.075 166.846 357.876 167.842 356.905 169.087C355.934 170.332 355.215 171.796 354.795 173.38C354.375 174.964 354.265 176.63 354.473 178.265C354.68 179.901 355.2 181.467 355.997 182.858L368.801 205.199L398.798 235.308C398.798 235.308 423.411 215.522 424.181 208.64C424.95 201.758 422.642 200.037 424.95 201.758C427.257 203.478 429.565 202.618 428.795 201.758C428.026 200.897 428.328 200.843 428.946 199.58C429.565 198.316 431.872 192.295 431.872 192.295L423.699 183.262C423.699 183.262 414.951 187.993 414.182 190.574C413.412 193.155 416.489 192.295 413.412 193.155C410.336 194.015 406.226 190.114 409.435 194.215C412.643 198.316 412.379 200.098 409.435 200.067C406.49 200.037 401.106 208.64 401.106 208.64L372.644 169.402C371.212 167.428 369.236 166.04 367.025 165.455C364.814 164.869 362.492 165.119 360.421 166.166Z" fill="#3F3D56"/>
<path d="M452.073 490.384C452.634 490.407 453.189 490.237 453.661 489.895C454.133 489.554 454.5 489.059 454.711 488.476C454.923 487.894 454.97 487.253 454.845 486.64C454.72 486.027 454.43 485.472 454.014 485.05C453.942 484.743 453.891 484.523 453.819 484.217C454.343 482.684 455.265 481.362 456.465 480.419C457.666 479.476 459.091 478.956 460.558 478.925C462.024 478.894 463.466 479.353 464.697 480.245C465.929 481.136 466.895 482.418 467.47 483.927C470.791 492.397 475.071 501.156 473.06 510.546C486.592 477.66 481.549 436.987 460.899 409.207C455.228 405.791 450.602 399.664 449.351 392.505C452.152 393.534 455.612 390.957 453.484 387.689C452.563 386.442 451.634 385.204 450.713 383.957C461.212 371.21 474.019 390.931 462.489 408.108C466.354 413.423 469.712 419.175 472.507 425.27C471.818 418.773 472.518 412.186 474.55 406.051C476.613 400.331 480.53 395.491 483.973 390.528C488.159 384.482 496.905 387.158 497.54 394.767C493.641 396.247 493.187 402.57 497.668 403.387C496.617 417.567 488.452 430.676 477.107 437.01C481.429 450.175 483.192 464.218 482.279 478.204C484.152 461.85 499.794 457.719 510.695 451.111C511.388 450.603 512.199 450.332 513.027 450.331C513.856 450.329 514.666 450.598 515.361 451.103C516.055 451.608 516.603 452.329 516.938 453.176C517.273 454.024 517.379 454.962 517.246 455.877C515.739 456.58 514.299 457.45 512.946 458.472C512.313 458.959 511.829 459.652 511.561 460.458C511.294 461.264 511.256 462.143 511.453 462.974C511.649 463.805 512.071 464.548 512.66 465.101C513.249 465.653 513.976 465.989 514.742 466.061C509.349 481.407 495.158 491.825 480.493 491.923C479.142 498.788 477.156 505.477 474.569 511.882L452.803 512.114C452.723 511.845 452.65 511.566 452.578 511.296C454.594 511.417 456.615 511.26 458.597 510.831C453.207 503.829 449.054 500.272 452.072 490.385L452.073 490.384Z" fill="#F2F2F2"/>
<path d="M4.05115e-06 511.976C-0.000354429 512.111 0.0230815 512.244 0.0689553 512.369C0.114829 512.493 0.182243 512.606 0.267312 512.701C0.352381 512.796 0.453426 512.872 0.564642 512.923C0.675857 512.974 0.795045 513 0.915348 513H551.085C551.328 513 551.56 512.892 551.732 512.7C551.904 512.508 552 512.248 552 511.976C552 511.705 551.904 511.444 551.732 511.252C551.56 511.06 551.328 510.953 551.085 510.953H0.915301C0.795004 510.952 0.675827 510.978 0.564618 511.03C0.453409 511.081 0.352364 511.156 0.2673 511.252C0.182237 511.347 0.114828 511.46 0.0689553 511.584C0.0230829 511.708 -0.000350316 511.842 4.05115e-06 511.976Z" fill="#CCCCCC"/>
<path d="M136.864 25.0105H116.097C115.077 25.0105 114.099 24.5573 113.377 23.7506C112.656 22.944 112.251 21.8499 112.251 20.7092C112.251 19.5684 112.656 18.4743 113.377 17.6677C114.099 16.861 115.077 16.4078 116.097 16.4078H136.864C137.884 16.4078 138.862 16.861 139.583 17.6677C140.305 18.4743 140.71 19.5684 140.71 20.7092C140.71 21.8499 140.305 22.944 139.583 23.7506C138.862 24.5573 137.884 25.0105 136.864 25.0105Z" fill="#E6E6E6"/>
<path d="M273.005 24.5803C274.916 24.5803 276.466 22.8471 276.466 20.7091C276.466 18.5711 274.916 16.838 273.005 16.838C271.093 16.838 269.543 18.5711 269.543 20.7091C269.543 22.8471 271.093 24.5803 273.005 24.5803Z" fill="#E6E6E6"/>
<path d="M283.773 24.5803C285.684 24.5803 287.234 22.8471 287.234 20.7091C287.234 18.5711 285.684 16.838 283.773 16.838C281.861 16.838 280.312 18.5711 280.312 20.7091C280.312 22.8471 281.861 24.5803 283.773 24.5803Z" fill="#E6E6E6"/>
<path d="M294.541 24.5803C296.453 24.5803 298.002 22.8471 298.002 20.7091C298.002 18.5711 296.453 16.838 294.541 16.838C292.629 16.838 291.08 18.5711 291.08 20.7091C291.08 22.8471 292.629 24.5803 294.541 24.5803Z" fill="#E6E6E6"/>
<path d="M161.092 169.105C166.19 169.105 170.322 164.483 170.322 158.781C170.322 153.08 166.19 148.458 161.092 148.458C155.995 148.458 151.863 153.08 151.863 158.781C151.863 164.483 155.995 169.105 161.092 169.105Z" fill="#CCCCCC"/>
<path d="M228.009 430.625C233.106 430.625 237.239 426.003 237.239 420.301C237.239 414.6 233.106 409.978 228.009 409.978C222.911 409.978 218.779 414.6 218.779 420.301C218.779 426.003 222.911 430.625 228.009 430.625Z" fill="#CCCCCC"/>
<path d="M152.847 299.827H126.133C122.435 299.823 118.889 298.178 116.275 295.253C113.66 292.329 112.189 288.363 112.185 284.228V254.348C112.189 250.213 113.66 246.247 116.275 243.323C118.889 240.398 122.435 238.753 126.133 238.749H152.847C156.545 238.753 160.09 240.398 162.705 243.323C165.32 246.247 166.791 250.213 166.795 254.348V284.227C166.791 288.363 165.32 292.329 162.705 295.253C160.09 298.178 156.545 299.823 152.847 299.827ZM126.133 240.469C122.843 240.473 119.688 241.937 117.362 244.539C115.036 247.141 113.727 250.669 113.723 254.348V284.227C113.727 287.907 115.035 291.435 117.362 294.037C119.688 296.639 122.842 298.103 126.133 298.107H152.847C156.137 298.103 159.291 296.639 161.618 294.037C163.944 291.435 165.253 287.907 165.257 284.227V254.348C165.253 250.669 163.944 247.141 161.618 244.539C159.291 241.937 156.137 240.473 152.847 240.469L126.133 240.469Z" fill="#E6E6E6"/>
<path d="M218.61 300.257H191.895C188.198 300.253 184.652 298.608 182.038 295.683C179.423 292.759 177.952 288.794 177.948 284.658V254.779C177.952 250.643 179.423 246.678 182.038 243.753C184.652 240.828 188.198 239.183 191.895 239.179H218.61C222.308 239.183 225.853 240.828 228.468 243.753C231.083 246.678 232.554 250.643 232.558 254.779V284.658C232.554 288.794 231.083 292.759 228.468 295.683C225.853 298.608 222.308 300.253 218.61 300.257ZM191.895 240.899C188.605 240.904 185.451 242.367 183.125 244.969C180.798 247.571 179.49 251.099 179.486 254.779V284.658C179.49 288.337 180.798 291.865 183.125 294.467C185.451 297.069 188.605 298.533 191.895 298.537H218.61C221.9 298.533 225.054 297.069 227.381 294.467C229.707 291.865 231.016 288.337 231.019 284.658V254.779C231.016 251.099 229.707 247.571 227.381 244.969C225.054 242.367 221.9 240.904 218.61 240.899L191.895 240.899Z" fill="#E6E6E6"/>
<path d="M284.373 300.688H257.658C253.96 300.683 250.415 299.038 247.8 296.113C245.185 293.189 243.715 289.224 243.71 285.088V255.209C243.715 251.073 245.185 247.108 247.8 244.183C250.415 241.259 253.96 239.614 257.658 239.609H284.373C288.071 239.614 291.616 241.259 294.231 244.183C296.845 247.108 298.316 251.073 298.32 255.209V285.088C298.316 289.224 296.845 293.189 294.231 296.113C291.616 299.038 288.071 300.683 284.373 300.688ZM257.658 241.329C254.368 241.334 251.214 242.797 248.888 245.399C246.561 248.001 245.253 251.529 245.249 255.209V285.088C245.252 288.767 246.561 292.295 248.887 294.897C251.214 297.499 254.368 298.963 257.658 298.967H284.373C287.663 298.963 290.817 297.499 293.144 294.897C295.47 292.295 296.779 288.768 296.782 285.088V255.209C296.778 251.529 295.47 248.001 293.143 245.399C290.817 242.797 287.663 241.334 284.373 241.329L257.658 241.329Z" fill="#E6E6E6"/>
<path d="M228.009 255.991C233.106 255.991 237.239 251.369 237.239 245.668C237.239 239.967 233.106 235.345 228.009 235.345C222.911 235.345 218.779 239.967 218.779 245.668C218.779 251.369 222.911 255.991 228.009 255.991Z" fill="#CCCCCC"/>
</g>
<defs>
<clipPath id="clip0_99_1346">
<rect width="552" height="513" fill="white"/>
</clipPath>
</defs>
</svg>
