<svg width="728" height="426" viewBox="0 0 728 426" fill="none" xmlns="http://www.w3.org/2000/svg">
<path d="M662.816 291.277H194.384V292.579H662.816V291.277Z" fill="#3F3D56"/>
<path d="M436.986 12.1395H270.721V8.64954H195.331V12.1395H28.3808C26.9039 12.1395 25.4414 12.4358 24.0769 13.0114C22.7125 13.587 21.4726 14.4307 20.4283 15.4942C19.384 16.5578 18.5556 17.8205 17.9904 19.2101C17.4252 20.5997 17.1343 22.0891 17.1343 23.5933V255.455C17.1343 258.493 18.3192 261.406 20.4283 263.554C22.5374 265.702 25.398 266.909 28.3808 266.909H436.986C439.968 266.909 442.829 265.702 444.938 263.554C447.047 261.406 448.232 258.493 448.232 255.455V23.5933C448.232 22.0891 447.941 20.5997 447.376 19.2101C446.811 17.8205 445.982 16.5578 444.938 15.4942C443.894 14.4307 442.654 13.587 441.289 13.0114C439.925 12.4358 438.462 12.1395 436.986 12.1395V12.1395Z" fill="#3F3D56"/>
<path d="M433.154 32.3815H32.2124V262.721H433.154V32.3815Z" fill="#078080"/>
<path d="M232.34 26.0995C234.612 26.0995 236.453 24.2245 236.453 21.9115C236.453 19.5985 234.612 17.7235 232.34 17.7235C230.069 17.7235 228.228 19.5985 228.228 21.9115C228.228 24.2245 230.069 26.0995 232.34 26.0995Z" fill="#078080"/>
<path opacity="0.1" d="M318.492 262.721H32.2125V32.3817L318.492 262.721Z" fill="black"/>
<path d="M94.9477 245.484C116.233 245.484 133.487 227.911 133.487 206.234C133.487 184.557 116.233 166.985 94.9477 166.985C73.6628 166.985 56.408 184.557 56.408 206.234C56.408 227.911 73.6628 245.484 94.9477 245.484Z" fill="#F2F2F2"/>
<path d="M363.343 156.605H325.891V164.575H363.343V156.605Z" fill="#3F3D56"/>
<path d="M408.621 94.5527H280.613V97.9685H408.621V94.5527Z" fill="#3F3D56"/>
<path d="M408.621 105.369H280.613V108.785H408.621V105.369Z" fill="#3F3D56"/>
<path d="M408.621 116.186H280.613V119.601H408.621V116.186Z" fill="#3F3D56"/>
<path d="M408.621 127.002H280.613V130.418H408.621V127.002Z" fill="#3F3D56"/>
<path d="M408.621 137.819H280.613V141.234H408.621V137.819Z" fill="#3F3D56"/>
<path d="M408.621 37.0546H392.97V52.9947H408.621V37.0546Z" fill="#F2F2F2"/>
<path d="M415.888 60.3954H396.883V41.0396H415.888V60.3954ZM397.709 59.5539H415.062V41.8811H397.709V59.5539Z" fill="#3F3D56"/>
<path d="M459.49 258.533H420.36V255.661C420.36 255.587 420.346 255.513 420.318 255.444C420.29 255.375 420.249 255.312 420.197 255.259C420.145 255.206 420.083 255.164 420.015 255.136C419.947 255.107 419.875 255.092 419.801 255.092H406.386C406.312 255.092 406.239 255.107 406.172 255.136C406.104 255.164 406.042 255.206 405.99 255.259C405.938 255.312 405.897 255.375 405.869 255.444C405.841 255.513 405.827 255.587 405.827 255.661V258.533H397.442V255.661C397.442 255.587 397.427 255.513 397.399 255.444C397.371 255.375 397.33 255.312 397.278 255.259C397.226 255.206 397.164 255.164 397.097 255.136C397.029 255.107 396.956 255.092 396.883 255.092H383.467C383.394 255.092 383.321 255.107 383.253 255.136C383.185 255.164 383.124 255.206 383.072 255.259C383.02 255.312 382.979 255.375 382.951 255.444C382.922 255.513 382.908 255.587 382.908 255.661V258.533H374.523V255.661C374.523 255.587 374.509 255.513 374.481 255.444C374.453 255.375 374.411 255.312 374.359 255.259C374.308 255.206 374.246 255.164 374.178 255.136C374.11 255.107 374.038 255.092 373.964 255.092H360.548C360.475 255.092 360.402 255.107 360.335 255.136C360.267 255.164 360.205 255.206 360.153 255.259C360.101 255.312 360.06 255.375 360.032 255.444C360.004 255.513 359.989 255.587 359.989 255.661V258.533H351.605V255.661C351.605 255.587 351.59 255.513 351.562 255.444C351.534 255.375 351.493 255.312 351.441 255.259C351.389 255.206 351.327 255.164 351.259 255.136C351.192 255.107 351.119 255.092 351.046 255.092H337.63C337.556 255.092 337.484 255.107 337.416 255.136C337.348 255.164 337.286 255.206 337.235 255.259C337.183 255.312 337.141 255.375 337.113 255.444C337.085 255.513 337.071 255.587 337.071 255.661V258.533H328.686V255.661C328.686 255.587 328.672 255.513 328.643 255.444C328.615 255.375 328.574 255.312 328.522 255.259C328.47 255.206 328.409 255.164 328.341 255.136C328.273 255.107 328.2 255.092 328.127 255.092H314.711C314.638 255.092 314.565 255.107 314.497 255.136C314.43 255.164 314.368 255.206 314.316 255.259C314.264 255.312 314.223 255.375 314.195 255.444C314.167 255.513 314.152 255.587 314.152 255.661V258.533H305.767V255.661C305.767 255.587 305.753 255.513 305.725 255.444C305.697 255.375 305.656 255.312 305.604 255.259C305.552 255.206 305.49 255.164 305.422 255.136C305.355 255.107 305.282 255.092 305.208 255.092H291.793C291.719 255.092 291.647 255.107 291.579 255.136C291.511 255.164 291.449 255.206 291.397 255.259C291.345 255.312 291.304 255.375 291.276 255.444C291.248 255.513 291.234 255.587 291.234 255.661V258.533H282.849V255.661C282.849 255.587 282.834 255.513 282.806 255.444C282.778 255.375 282.737 255.312 282.685 255.259C282.633 255.206 282.572 255.164 282.504 255.136C282.436 255.107 282.363 255.092 282.29 255.092H177.2C177.126 255.092 177.054 255.107 176.986 255.136C176.918 255.164 176.856 255.206 176.804 255.259C176.753 255.312 176.711 255.375 176.683 255.444C176.655 255.513 176.641 255.587 176.641 255.661V258.533H168.256V255.661C168.256 255.587 168.241 255.513 168.213 255.444C168.185 255.375 168.144 255.312 168.092 255.259C168.04 255.206 167.979 255.164 167.911 255.136C167.843 255.107 167.77 255.092 167.697 255.092H154.281C154.208 255.092 154.135 255.107 154.067 255.136C153.999 255.164 153.938 255.206 153.886 255.259C153.834 255.312 153.793 255.375 153.765 255.444C153.737 255.513 153.722 255.587 153.722 255.661V258.533H145.337V255.661C145.337 255.587 145.323 255.513 145.295 255.444C145.267 255.375 145.226 255.312 145.174 255.259C145.122 255.206 145.06 255.164 144.992 255.136C144.924 255.107 144.852 255.092 144.778 255.092H131.363C131.289 255.092 131.216 255.107 131.149 255.136C131.081 255.164 131.019 255.206 130.967 255.259C130.915 255.312 130.874 255.375 130.846 255.444C130.818 255.513 130.804 255.587 130.804 255.661V258.533H122.419V255.661C122.419 255.587 122.404 255.513 122.376 255.444C122.348 255.375 122.307 255.312 122.255 255.259C122.203 255.206 122.142 255.164 122.074 255.136C122.006 255.107 121.933 255.092 121.86 255.092H108.444C108.371 255.092 108.298 255.107 108.23 255.136C108.162 255.164 108.101 255.206 108.049 255.259C107.997 255.312 107.956 255.375 107.928 255.444C107.899 255.513 107.885 255.587 107.885 255.661V258.533H99.5002V255.661C99.5002 255.587 99.4857 255.513 99.4577 255.444C99.4296 255.375 99.3884 255.312 99.3365 255.259C99.2846 255.206 99.223 255.164 99.1551 255.136C99.0873 255.107 99.0146 255.092 98.9412 255.092H85.5254C85.452 255.092 85.3793 255.107 85.3115 255.136C85.2437 255.164 85.1821 255.206 85.1302 255.259C85.0782 255.312 85.0371 255.375 85.009 255.444C84.9809 255.513 84.9664 255.587 84.9664 255.661V258.533H76.5816V255.661C76.5816 255.587 76.5672 255.513 76.5391 255.444C76.511 255.375 76.4698 255.312 76.4179 255.259C76.366 255.206 76.3043 255.164 76.2365 255.136C76.1687 255.107 76.096 255.092 76.0226 255.092H62.6068C62.5334 255.092 62.4608 255.107 62.3929 255.136C62.3251 255.164 62.2635 255.206 62.2116 255.259C62.1597 255.312 62.1185 255.375 62.0904 255.444C62.0623 255.513 62.0479 255.587 62.0479 255.661V258.533H53.663V255.661C53.663 255.587 53.6486 255.513 53.6205 255.444C53.5924 255.375 53.5512 255.312 53.4993 255.259C53.4474 255.206 53.3858 255.164 53.3179 255.136C53.2501 255.107 53.1774 255.092 53.104 255.092H39.6883C39.6149 255.092 39.5422 255.107 39.4744 255.136C39.4065 255.164 39.3449 255.206 39.293 255.259C39.2411 255.312 39.1999 255.375 39.1718 255.444C39.1437 255.513 39.1293 255.587 39.1293 255.661V258.533H13.4158C9.85768 258.533 6.44533 259.972 3.92939 262.534C1.41345 265.097 3.38979e-06 268.572 0 272.196V278.374C1.01694e-05 281.997 1.41346 285.472 3.9294 288.035C6.44534 290.597 9.85768 292.036 13.4158 292.036H459.49C463.048 292.036 466.46 290.597 468.976 288.035C471.492 285.472 472.905 281.997 472.905 278.374V272.196C472.905 268.572 471.492 265.097 468.976 262.534C466.46 259.972 463.048 258.533 459.49 258.533Z" fill="#3F3D56"/>
<path d="M104.276 230.749C94.6705 230.749 85.2802 227.848 77.2931 222.413C69.3061 216.978 63.0809 209.253 59.4049 200.215C55.7288 191.176 54.767 181.231 56.641 171.636C58.5151 162.041 63.1408 153.227 69.9332 146.31C76.7257 139.392 85.3798 134.681 94.8012 132.773C104.223 130.864 113.988 131.844 122.863 135.587C131.738 139.331 139.323 145.671 144.66 153.805C149.997 161.94 152.845 171.503 152.845 181.286C152.831 194.4 147.709 206.972 138.604 216.245C129.498 225.518 117.153 230.734 104.276 230.749ZM104.276 133.124C94.9233 133.124 85.7801 135.949 78.0032 141.241C70.2263 146.533 64.165 154.055 60.5857 162.855C57.0064 171.655 56.0699 181.339 57.8946 190.682C59.7193 200.024 64.2233 208.606 70.837 215.341C77.4507 222.077 85.8771 226.664 95.0505 228.522C104.224 230.381 113.733 229.427 122.374 225.782C131.015 222.136 138.401 215.963 143.597 208.043C148.793 200.123 151.567 190.811 151.567 181.286C151.553 168.517 146.566 156.275 137.7 147.246C128.835 138.217 116.814 133.138 104.276 133.124V133.124Z" fill="#3F3D56"/>
<path d="M675.597 150.967H674.077V108.557C674.077 105.334 673.454 102.142 672.243 99.164C671.031 96.186 669.256 93.4801 667.018 91.2009C664.78 88.9216 662.123 87.1136 659.199 85.8801C656.275 84.6466 653.141 84.0117 649.976 84.0117H561.751C558.586 84.0117 555.452 84.6466 552.528 85.8801C549.604 87.1136 546.947 88.9216 544.709 91.2009C542.471 93.4802 540.695 96.186 539.484 99.164C538.273 102.142 537.65 105.334 537.65 108.557V341.219C537.65 344.442 538.273 347.634 539.484 350.612C540.695 353.59 542.471 356.296 544.709 358.575C546.947 360.854 549.604 362.662 552.528 363.896C555.452 365.129 558.586 365.764 561.751 365.764H649.976C653.141 365.764 656.275 365.129 659.199 363.896C662.123 362.662 664.78 360.854 667.018 358.575C669.256 356.296 671.031 353.59 672.243 350.612C673.454 347.634 674.077 344.442 674.077 341.219V181.154H675.597V150.967Z" fill="#3F3D56"/>
<path d="M668.945 110V342.322C668.946 347.184 667.05 351.847 663.675 355.285C660.3 358.723 655.722 360.655 650.949 360.656H562.298C557.525 360.655 552.947 358.723 549.572 355.285C546.197 351.847 544.301 347.184 544.302 342.322V110C544.303 105.139 546.199 100.478 549.574 97.0408C552.949 93.6039 557.526 91.6728 562.298 91.6722H573.054C572.524 92.9945 572.322 94.429 572.466 95.8494C572.609 97.2699 573.093 98.6326 573.875 99.8176C574.658 101.003 575.714 101.974 576.951 102.645C578.189 103.316 579.57 103.667 580.972 103.667H631.515C632.917 103.667 634.298 103.316 635.535 102.645C636.773 101.974 637.829 101.003 638.611 99.8177C639.393 98.6326 639.877 97.2699 640.021 95.8494C640.164 94.429 639.962 92.9945 639.433 91.6722H650.949C655.721 91.6728 660.298 93.6039 663.673 97.0408C667.048 100.478 668.944 105.139 668.945 110V110Z" fill="#078080"/>
<path d="M619.828 244.856H593.419V252.826H619.828V244.856Z" fill="#3F3D56"/>
<path d="M651.754 182.803H561.493V186.219H651.754V182.803Z" fill="#3F3D56"/>
<path d="M651.754 193.62H561.493V197.036H651.754V193.62Z" fill="#3F3D56"/>
<path d="M651.754 204.436H561.493V207.852H651.754V204.436Z" fill="#3F3D56"/>
<path d="M651.754 215.253H561.493V218.669H651.754V215.253Z" fill="#3F3D56"/>
<path d="M651.754 226.069H561.493V229.485H651.754V226.069Z" fill="#3F3D56"/>
<path d="M609.776 137.443H594.125V153.383H609.776V137.443Z" fill="#F2F2F2"/>
<path d="M600.116 141.429V160.785H619.122V141.429H600.116ZM618.298 159.945H600.941V142.268H618.298V159.945Z" fill="#3F3D56"/>
<path opacity="0.1" d="M668.945 317.512V342.322C668.946 347.184 667.05 351.847 663.675 355.285C660.3 358.723 655.722 360.655 650.949 360.656H562.298C557.525 360.655 552.947 358.723 549.572 355.285C546.197 351.847 544.301 347.184 544.302 342.322V217.225L618.989 277.317L620.267 278.345L634.161 289.52L635.458 290.568L668.945 317.512Z" fill="black"/>
<path d="M598.955 353.127C614.437 353.127 626.989 340.344 626.989 324.576C626.989 308.808 614.437 296.025 598.955 296.025C583.472 296.025 570.92 308.808 570.92 324.576C570.92 340.344 583.472 353.127 598.955 353.127Z" fill="#F2F2F2"/>
<path d="M607.218 346.598C600.266 346.598 593.47 344.499 587.69 340.565C581.91 336.632 577.405 331.041 574.745 324.501C572.085 317.96 571.389 310.762 572.745 303.819C574.101 296.875 577.448 290.497 582.364 285.491C587.28 280.484 593.542 277.075 600.361 275.694C607.179 274.313 614.246 275.022 620.668 277.731C627.091 280.44 632.58 285.028 636.443 290.915C640.305 296.802 642.366 303.722 642.366 310.802C642.356 320.292 638.649 329.391 632.06 336.102C625.47 342.813 616.536 346.587 607.218 346.598V346.598ZM607.218 276.308C600.519 276.308 593.97 278.331 588.4 282.121C582.83 285.911 578.489 291.299 575.926 297.602C573.362 303.905 572.691 310.84 573.998 317.532C575.305 324.223 578.531 330.369 583.268 335.193C588.005 340.017 594.04 343.303 600.61 344.634C607.18 345.965 613.99 345.281 620.179 342.671C626.368 340.06 631.658 335.639 635.38 329.966C639.101 324.294 641.088 317.624 641.088 310.802C641.078 301.657 637.506 292.889 631.156 286.422C624.807 279.956 616.198 276.318 607.218 276.308Z" fill="#3F3D56"/>
</svg>
