<svg width="284" height="69" viewBox="0 0 284 69" fill="none" xmlns="http://www.w3.org/2000/svg">
<rect x="0.5" y="0.5" width="124" height="29" rx="7.5" stroke="black"/>
<rect x="159.5" y="39.5" width="124" height="29" rx="7.5" fill="#D9D9D9" stroke="black"/>
<line x1="125" y1="15.5" x2="136" y2="15.5" stroke="black"/>
<line x1="140.5" y1="20" x2="140.5" y2="50" stroke="black"/>
<mask id="path-5-inside-1_307_2926" fill="white">
<path d="M136 15C138.761 15 141 17.2386 141 20H136V15Z"/>
</mask>
<path d="M136 14C139.314 14 142 16.6863 142 20H140C140 17.7909 138.209 16 136 16V14ZM141 20H136H141ZM136 20V15V20ZM136 14C139.314 14 142 16.6863 142 20H140C140 17.7909 138.209 16 136 16V14Z" fill="black" mask="url(#path-5-inside-1_307_2926)"/>
<mask id="path-7-inside-2_307_2926" fill="white">
<path d="M140 49.5H145V54.5C142.239 54.5 140 52.2614 140 49.5Z"/>
</mask>
<path d="M140 49.5H145H140ZM145 55.5C141.686 55.5 139 52.8137 139 49.5H141C141 51.7091 142.791 53.5 145 53.5V55.5ZM145 55.5C141.686 55.5 139 52.8137 139 49.5H141C141 51.7091 142.791 53.5 145 53.5V55.5ZM145 49.5V54.5V49.5Z" fill="black" mask="url(#path-7-inside-2_307_2926)"/>
<path d="M159 54L154 51.1132V56.8868L159 54ZM145 54.5H154.5V53.5H145V54.5Z" fill="black"/>
<path d="M40.6562 8.20312V21H38.4502V8.20312H40.6562ZM46.0527 21H43.9346V10.5762C43.9346 9.86719 44.0664 9.27246 44.3301 8.79199C44.5996 8.30566 44.9834 7.93945 45.4814 7.69336C45.9795 7.44141 46.5684 7.31543 47.248 7.31543C47.459 7.31543 47.667 7.33008 47.8721 7.35938C48.0771 7.38281 48.2764 7.4209 48.4697 7.47363L48.417 9.1084C48.2998 9.0791 48.1709 9.05859 48.0303 9.04688C47.8955 9.03516 47.749 9.0293 47.5908 9.0293C47.2686 9.0293 46.9902 9.09082 46.7559 9.21387C46.5273 9.33105 46.3516 9.50391 46.2285 9.73242C46.1113 9.96094 46.0527 10.2422 46.0527 10.5762V21ZM48.0127 11.4902V13.0371H42.4756V11.4902H48.0127ZM59.0869 8.20312V21H56.8984V8.20312H59.0869ZM63.1035 8.20312V9.96094H52.917V8.20312H63.1035ZM66.6719 7.5V21H64.5625V7.5H66.6719ZM66.3027 15.8936L65.6172 15.8848C65.623 15.2285 65.7139 14.6221 65.8896 14.0654C66.0713 13.5088 66.3232 13.0254 66.6455 12.6152C66.9736 12.1992 67.3662 11.8799 67.8232 11.6572C68.2803 11.4287 68.7871 11.3145 69.3438 11.3145C69.8125 11.3145 70.2344 11.3789 70.6094 11.5078C70.9902 11.6367 71.3184 11.8447 71.5938 12.1318C71.8691 12.4131 72.0771 12.7822 72.2178 13.2393C72.3643 13.6904 72.4375 14.2412 72.4375 14.8916V21H70.3105V14.874C70.3105 14.417 70.2432 14.0537 70.1084 13.7842C69.9795 13.5146 69.7891 13.3213 69.5371 13.2041C69.2852 13.0811 68.9775 13.0195 68.6143 13.0195C68.2334 13.0195 67.8965 13.0957 67.6035 13.248C67.3164 13.4004 67.0762 13.6084 66.8828 13.8721C66.6895 14.1357 66.543 14.4404 66.4434 14.7861C66.3496 15.1318 66.3027 15.501 66.3027 15.8936ZM76.8496 11.4902V21H74.7227V11.4902H76.8496ZM74.582 8.99414C74.582 8.67188 74.6875 8.40527 74.8984 8.19434C75.1152 7.97754 75.4141 7.86914 75.7949 7.86914C76.1699 7.86914 76.4658 7.97754 76.6826 8.19434C76.8994 8.40527 77.0078 8.67188 77.0078 8.99414C77.0078 9.31055 76.8994 9.57422 76.6826 9.78516C76.4658 9.99609 76.1699 10.1016 75.7949 10.1016C75.4141 10.1016 75.1152 9.99609 74.8984 9.78516C74.6875 9.57422 74.582 9.31055 74.582 8.99414ZM84.5049 18.4248C84.5049 18.2139 84.4521 18.0234 84.3467 17.8535C84.2412 17.6777 84.0391 17.5195 83.7402 17.3789C83.4473 17.2383 83.0137 17.1094 82.4395 16.9922C81.9355 16.8809 81.4727 16.749 81.0508 16.5967C80.6348 16.4385 80.2773 16.248 79.9785 16.0254C79.6797 15.8027 79.4482 15.5391 79.2842 15.2344C79.1201 14.9297 79.0381 14.5781 79.0381 14.1797C79.0381 13.793 79.123 13.4268 79.293 13.0811C79.4629 12.7354 79.7061 12.4307 80.0225 12.167C80.3389 11.9033 80.7227 11.6953 81.1738 11.543C81.6309 11.3906 82.1406 11.3145 82.7031 11.3145C83.5 11.3145 84.1826 11.4492 84.751 11.7188C85.3252 11.9824 85.7646 12.3428 86.0693 12.7998C86.374 13.251 86.5264 13.7607 86.5264 14.3291H84.4082C84.4082 14.0771 84.3438 13.8428 84.2148 13.626C84.0918 13.4033 83.9043 13.2246 83.6523 13.0898C83.4004 12.9492 83.084 12.8789 82.7031 12.8789C82.3398 12.8789 82.0381 12.9375 81.7979 13.0547C81.5635 13.166 81.3877 13.3125 81.2705 13.4941C81.1592 13.6758 81.1035 13.875 81.1035 14.0918C81.1035 14.25 81.1328 14.3936 81.1914 14.5225C81.2559 14.6455 81.3613 14.7598 81.5078 14.8652C81.6543 14.9648 81.8535 15.0586 82.1055 15.1465C82.3633 15.2344 82.6855 15.3193 83.0723 15.4014C83.7988 15.5537 84.4229 15.75 84.9443 15.9902C85.4717 16.2246 85.876 16.5293 86.1572 16.9043C86.4385 17.2734 86.5791 17.7422 86.5791 18.3105C86.5791 18.7324 86.4883 19.1191 86.3066 19.4707C86.1309 19.8164 85.873 20.1182 85.5332 20.376C85.1934 20.6279 84.7861 20.8242 84.3115 20.9648C83.8428 21.1055 83.3154 21.1758 82.7295 21.1758C81.8682 21.1758 81.1387 21.0234 80.541 20.7188C79.9434 20.4082 79.4893 20.0127 79.1787 19.5322C78.874 19.0459 78.7217 18.542 78.7217 18.0205H80.7695C80.793 18.4131 80.9014 18.7266 81.0947 18.9609C81.2939 19.1895 81.54 19.3564 81.833 19.4619C82.1318 19.5615 82.4395 19.6113 82.7559 19.6113C83.1367 19.6113 83.4561 19.5615 83.7139 19.4619C83.9717 19.3564 84.168 19.2158 84.3027 19.04C84.4375 18.8584 84.5049 18.6533 84.5049 18.4248Z" fill="black"/>
<path d="M187.565 47.2031V60H185.377V47.2031H187.565ZM191.582 47.2031V48.9609H181.396V47.2031H191.582ZM195.15 46.5V60H193.041V46.5H195.15ZM194.781 54.8936L194.096 54.8848C194.102 54.2285 194.192 53.6221 194.368 53.0654C194.55 52.5088 194.802 52.0254 195.124 51.6152C195.452 51.1992 195.845 50.8799 196.302 50.6572C196.759 50.4287 197.266 50.3145 197.822 50.3145C198.291 50.3145 198.713 50.3789 199.088 50.5078C199.469 50.6367 199.797 50.8447 200.072 51.1318C200.348 51.4131 200.556 51.7822 200.696 52.2393C200.843 52.6904 200.916 53.2412 200.916 53.8916V60H198.789V53.874C198.789 53.417 198.722 53.0537 198.587 52.7842C198.458 52.5146 198.268 52.3213 198.016 52.2041C197.764 52.0811 197.456 52.0195 197.093 52.0195C196.712 52.0195 196.375 52.0957 196.082 52.248C195.795 52.4004 195.555 52.6084 195.361 52.8721C195.168 53.1357 195.021 53.4404 194.922 53.7861C194.828 54.1318 194.781 54.501 194.781 54.8936ZM207.253 60.1758C206.55 60.1758 205.914 60.0615 205.346 59.833C204.783 59.5986 204.303 59.2734 203.904 58.8574C203.512 58.4414 203.21 57.9521 202.999 57.3896C202.788 56.8271 202.683 56.2207 202.683 55.5703V55.2188C202.683 54.4746 202.791 53.8008 203.008 53.1973C203.225 52.5938 203.526 52.0781 203.913 51.6504C204.3 51.2168 204.757 50.8857 205.284 50.6572C205.812 50.4287 206.383 50.3145 206.998 50.3145C207.678 50.3145 208.272 50.4287 208.782 50.6572C209.292 50.8857 209.714 51.208 210.048 51.624C210.388 52.0342 210.64 52.5234 210.804 53.0918C210.974 53.6602 211.059 54.2871 211.059 54.9727V55.8779H203.711V54.3574H208.967V54.1904C208.955 53.8096 208.879 53.4521 208.738 53.1182C208.604 52.7842 208.396 52.5146 208.114 52.3096C207.833 52.1045 207.458 52.002 206.989 52.002C206.638 52.002 206.324 52.0781 206.049 52.2305C205.779 52.377 205.554 52.5908 205.372 52.8721C205.19 53.1533 205.05 53.4932 204.95 53.8916C204.856 54.2842 204.81 54.7266 204.81 55.2188V55.5703C204.81 55.9863 204.865 56.373 204.977 56.7305C205.094 57.082 205.264 57.3896 205.486 57.6533C205.709 57.917 205.979 58.125 206.295 58.2773C206.611 58.4238 206.972 58.4971 207.376 58.4971C207.886 58.4971 208.34 58.3945 208.738 58.1895C209.137 57.9844 209.482 57.6943 209.775 57.3193L210.892 58.4004C210.687 58.6992 210.42 58.9863 210.092 59.2617C209.764 59.5312 209.362 59.751 208.888 59.9209C208.419 60.0908 207.874 60.1758 207.253 60.1758ZM214.812 52.5205V60H212.693V50.4902H214.688L214.812 52.5205ZM214.434 54.8936L213.748 54.8848C213.754 54.2109 213.848 53.5928 214.029 53.0303C214.217 52.4678 214.475 51.9844 214.803 51.5801C215.137 51.1758 215.535 50.8652 215.998 50.6484C216.461 50.4258 216.977 50.3145 217.545 50.3145C218.002 50.3145 218.415 50.3789 218.784 50.5078C219.159 50.6309 219.479 50.833 219.742 51.1143C220.012 51.3955 220.217 51.7617 220.357 52.2129C220.498 52.6582 220.568 53.2061 220.568 53.8564V60H218.441V53.8477C218.441 53.3906 218.374 53.0303 218.239 52.7666C218.11 52.4971 217.92 52.3066 217.668 52.1953C217.422 52.0781 217.114 52.0195 216.745 52.0195C216.382 52.0195 216.057 52.0957 215.77 52.248C215.482 52.4004 215.239 52.6084 215.04 52.8721C214.847 53.1357 214.697 53.4404 214.592 53.7861C214.486 54.1318 214.434 54.501 214.434 54.8936ZM232.267 47.2031V60H230.078V47.2031H232.267ZM236.283 47.2031V48.9609H226.097V47.2031H236.283ZM239.852 46.5V60H237.742V46.5H239.852ZM239.482 54.8936L238.797 54.8848C238.803 54.2285 238.894 53.6221 239.069 53.0654C239.251 52.5088 239.503 52.0254 239.825 51.6152C240.153 51.1992 240.546 50.8799 241.003 50.6572C241.46 50.4287 241.967 50.3145 242.523 50.3145C242.992 50.3145 243.414 50.3789 243.789 50.5078C244.17 50.6367 244.498 50.8447 244.773 51.1318C245.049 51.4131 245.257 51.7822 245.397 52.2393C245.544 52.6904 245.617 53.2412 245.617 53.8916V60H243.49V53.874C243.49 53.417 243.423 53.0537 243.288 52.7842C243.159 52.5146 242.969 52.3213 242.717 52.2041C242.465 52.0811 242.157 52.0195 241.794 52.0195C241.413 52.0195 241.076 52.0957 240.783 52.248C240.496 52.4004 240.256 52.6084 240.062 52.8721C239.869 53.1357 239.723 53.4404 239.623 53.7861C239.529 54.1318 239.482 54.501 239.482 54.8936ZM253.123 58.0928V53.5576C253.123 53.2178 253.062 52.9248 252.938 52.6787C252.815 52.4326 252.628 52.2422 252.376 52.1074C252.13 51.9727 251.819 51.9053 251.444 51.9053C251.099 51.9053 250.8 51.9639 250.548 52.0811C250.296 52.1982 250.1 52.3564 249.959 52.5557C249.818 52.7549 249.748 52.9805 249.748 53.2324H247.639C247.639 52.8574 247.729 52.4941 247.911 52.1426C248.093 51.791 248.356 51.4775 248.702 51.2021C249.048 50.9268 249.461 50.71 249.941 50.5518C250.422 50.3936 250.961 50.3145 251.559 50.3145C252.273 50.3145 252.906 50.4346 253.457 50.6748C254.014 50.915 254.45 51.2783 254.767 51.7646C255.089 52.2451 255.25 52.8486 255.25 53.5752V57.8027C255.25 58.2363 255.279 58.626 255.338 58.9717C255.402 59.3115 255.493 59.6074 255.61 59.8594V60H253.439C253.34 59.7715 253.261 59.4814 253.202 59.1299C253.149 58.7725 253.123 58.4268 253.123 58.0928ZM253.431 54.2168L253.448 55.5264H251.928C251.535 55.5264 251.189 55.5645 250.891 55.6406C250.592 55.7109 250.343 55.8164 250.144 55.957C249.944 56.0977 249.795 56.2676 249.695 56.4668C249.596 56.666 249.546 56.8916 249.546 57.1436C249.546 57.3955 249.604 57.627 249.722 57.8379C249.839 58.043 250.009 58.2041 250.231 58.3213C250.46 58.4385 250.735 58.4971 251.058 58.4971C251.491 58.4971 251.869 58.4092 252.191 58.2334C252.52 58.0518 252.777 57.832 252.965 57.5742C253.152 57.3105 253.252 57.0615 253.264 56.8271L253.949 57.7676C253.879 58.0078 253.759 58.2656 253.589 58.541C253.419 58.8164 253.196 59.0801 252.921 59.332C252.651 59.5781 252.326 59.7803 251.945 59.9385C251.57 60.0967 251.137 60.1758 250.645 60.1758C250.023 60.1758 249.47 60.0527 248.983 59.8066C248.497 59.5547 248.116 59.2178 247.841 58.7959C247.565 58.3682 247.428 57.8848 247.428 57.3457C247.428 56.8418 247.521 56.3965 247.709 56.0098C247.902 55.6172 248.184 55.2891 248.553 55.0254C248.928 54.7617 249.385 54.5625 249.924 54.4277C250.463 54.2871 251.078 54.2168 251.77 54.2168H253.431ZM261.824 50.4902V52.0371H256.463V50.4902H261.824ZM258.01 48.1611H260.128V57.3721C260.128 57.665 260.169 57.8906 260.251 58.0488C260.339 58.2012 260.459 58.3037 260.611 58.3564C260.764 58.4092 260.942 58.4355 261.147 58.4355C261.294 58.4355 261.435 58.4268 261.569 58.4092C261.704 58.3916 261.812 58.374 261.895 58.3564L261.903 59.9736C261.728 60.0264 261.522 60.0732 261.288 60.1143C261.06 60.1553 260.796 60.1758 260.497 60.1758C260.011 60.1758 259.58 60.0908 259.205 59.9209C258.83 59.7451 258.537 59.4609 258.326 59.0684C258.115 58.6758 258.01 58.1543 258.01 57.5039V48.1611Z" fill="black"/>
</svg>
