<svg width="195" height="339" viewBox="0 0 195 339" fill="none" xmlns="http://www.w3.org/2000/svg">
<path d="M167.368 339H71.8419C68.2837 338.996 64.8723 337.664 62.3562 335.294C59.8402 332.925 58.4249 329.713 58.4209 326.362V191.185C58.4249 187.834 59.8402 184.621 62.3562 182.252C64.8723 179.883 68.2837 178.55 71.8419 178.546H167.368C170.926 178.55 174.338 179.883 176.854 182.252C179.37 184.621 180.785 187.834 180.789 191.185V326.362C180.785 329.713 179.37 332.925 176.854 335.294C174.338 337.664 170.926 338.996 167.368 339ZM71.8419 180.033C68.7023 180.037 65.6922 181.213 63.4722 183.303C61.2521 185.394 60.0034 188.228 59.9998 191.185V326.362C60.0034 329.318 61.2521 332.153 63.4722 334.243C65.6922 336.334 68.7023 337.51 71.8419 337.513H167.368C170.508 337.51 173.518 336.334 175.738 334.243C177.958 332.153 179.207 329.318 179.21 326.362V191.185C179.207 188.228 177.958 185.394 175.738 183.303C173.518 181.213 170.508 180.037 167.368 180.033H71.8419Z" fill="#F45D48"/>
<path d="M148.026 211.938H91.1842C89.5091 211.938 87.9027 211.311 86.7183 210.196C85.5338 209.08 84.8684 207.568 84.8684 205.99C84.8684 204.413 85.5338 202.9 86.7183 201.785C87.9027 200.67 89.5091 200.043 91.1842 200.043H148.026C149.701 200.043 151.308 200.67 152.492 201.785C153.677 202.9 154.342 204.413 154.342 205.99C154.342 207.568 153.677 209.08 152.492 210.196C151.308 211.311 149.701 211.938 148.026 211.938Z" fill="#CCCCCC"/>
<path d="M148.026 234.24H91.1842C89.5091 234.24 87.9027 233.614 86.7183 232.498C85.5338 231.383 84.8684 229.87 84.8684 228.293C84.8684 226.716 85.5338 225.203 86.7183 224.088C87.9027 222.972 89.5091 222.346 91.1842 222.346H148.026C149.701 222.346 151.308 222.972 152.492 224.088C153.677 225.203 154.342 226.716 154.342 228.293C154.342 229.87 153.677 231.383 152.492 232.498C151.308 233.614 149.701 234.24 148.026 234.24Z" fill="#CCCCCC"/>
<path d="M152.763 291.112H86.4473C84.6682 291.11 82.9626 290.443 81.7046 289.259C80.4466 288.074 79.7389 286.468 79.7368 284.792V255.056C79.7389 253.38 80.4466 251.774 81.7046 250.59C82.9626 249.405 84.6682 248.739 86.4473 248.737H152.763C154.542 248.739 156.248 249.405 157.506 250.59C158.764 251.774 159.471 253.38 159.474 255.056V284.792C159.471 286.468 158.764 288.074 157.506 289.259C156.248 290.443 154.542 291.11 152.763 291.112Z" fill="#F45D48"/>
<path d="M148.026 317.504H91.1842C89.5091 317.504 87.9027 316.877 86.7183 315.762C85.5338 314.646 84.8684 313.134 84.8684 311.556C84.8684 309.979 85.5338 308.466 86.7183 307.351C87.9027 306.235 89.5091 305.609 91.1842 305.609H148.026C149.701 305.609 151.308 306.235 152.492 307.351C153.677 308.466 154.342 309.979 154.342 311.556C154.342 313.134 153.677 314.646 152.492 315.762C151.308 316.877 149.701 317.504 148.026 317.504Z" fill="#CCCCCC"/>
<path d="M108.947 124.151H13.421C9.86278 124.147 6.45138 122.815 3.93532 120.445C1.41925 118.076 0.00400568 114.864 0 111.513V27.6316C0.00400359 24.2809 1.41925 21.0685 3.93532 18.6992C6.45138 16.3299 9.86278 14.9972 13.421 14.9934H108.947C112.505 14.9972 115.917 16.3299 118.433 18.6992C120.949 21.0685 122.364 24.2809 122.368 27.6316V111.513C122.364 114.864 120.949 118.076 118.433 120.445C115.917 122.815 112.505 124.147 108.947 124.151ZM13.421 16.4803C10.2814 16.4836 7.27135 17.6595 5.05129 19.7501C2.83124 21.8406 1.5825 24.6751 1.57895 27.6316V111.513C1.5825 114.469 2.83124 117.304 5.05129 119.394C7.27135 121.485 10.2814 122.661 13.421 122.664H108.947C112.087 122.661 115.097 121.485 117.317 119.394C119.537 117.304 120.786 114.469 120.789 111.513V27.6316C120.786 24.6751 119.537 21.8406 117.317 19.7501C115.097 17.6595 112.087 16.4836 108.947 16.4803H13.421Z" fill="#F45D48"/>
<path d="M89.6053 97.8227H32.7633C31.0882 97.8227 29.4818 97.1961 28.2974 96.0808C27.1129 94.9654 26.4475 93.4527 26.4475 91.8754C26.4475 90.298 27.1129 88.7853 28.2974 87.6699C29.4818 86.5546 31.0882 85.928 32.7633 85.928H89.6053C91.2804 85.928 92.8868 86.5546 94.0713 87.6699C95.2557 88.7853 95.9211 90.298 95.9211 91.8754C95.9211 93.4527 95.2557 94.9654 94.0713 96.0808C92.8868 97.1961 91.2804 97.8227 89.6053 97.8227Z" fill="#CCCCCC"/>
<path d="M89.6053 75.5195H32.7633C31.0882 75.5195 29.4818 74.8929 28.2974 73.7776C27.1129 72.6622 26.4475 71.1495 26.4475 69.5721C26.4475 67.9948 27.1129 66.4821 28.2974 65.3667C29.4818 64.2514 31.0882 63.6248 32.7633 63.6248H89.6053C91.2804 63.6248 92.8868 64.2514 94.0713 65.3667C95.2557 66.4821 95.9211 67.9948 95.9211 69.5721C95.9211 71.1495 95.2557 72.6622 94.0713 73.7776C92.8868 74.8929 91.2804 75.5195 89.6053 75.5195Z" fill="#CCCCCC"/>
<path d="M89.6053 53.2172H32.7633C31.0882 53.2172 29.4818 52.5907 28.2974 51.4753C27.1129 50.36 26.4475 48.8472 26.4475 47.2699C26.4475 45.6925 27.1129 44.1798 28.2974 43.0645C29.4818 41.9491 31.0882 41.3225 32.7633 41.3225H89.6053C91.2804 41.3225 92.8868 41.9491 94.0713 43.0645C95.2557 44.1798 95.9211 45.6925 95.9211 47.2699C95.9211 48.8472 95.2557 50.36 94.0713 51.4753C92.8868 52.5907 91.2804 53.2172 89.6053 53.2172Z" fill="#CCCCCC"/>
<path d="M176.842 199.98C186.871 199.98 195 192.325 195 182.882C195 173.438 186.871 165.783 176.842 165.783C166.814 165.783 158.684 173.438 158.684 182.882C158.684 192.325 166.814 199.98 176.842 199.98Z" fill="#F45D48"/>
<path d="M175.042 189.404C174.634 189.405 174.236 189.281 173.909 189.05L173.889 189.036L169.621 185.959C169.423 185.817 169.256 185.639 169.13 185.436C169.005 185.233 168.923 185.008 168.89 184.775C168.857 184.543 168.873 184.306 168.937 184.079C169.001 183.852 169.112 183.639 169.264 183.452C169.416 183.266 169.605 183.109 169.822 182.992C170.038 182.874 170.276 182.798 170.524 182.768C170.771 182.737 171.022 182.753 171.263 182.815C171.504 182.876 171.73 182.981 171.928 183.125L174.691 185.121L181.223 177.099C181.375 176.913 181.564 176.757 181.779 176.64C181.995 176.522 182.233 176.446 182.48 176.415C182.726 176.385 182.977 176.4 183.218 176.461C183.458 176.521 183.684 176.626 183.881 176.769L183.841 176.821L183.882 176.769C184.281 177.058 184.542 177.483 184.607 177.953C184.673 178.422 184.539 178.897 184.233 179.272L176.55 188.708C176.373 188.925 176.144 189.101 175.883 189.222C175.621 189.343 175.333 189.405 175.042 189.404Z" fill="white"/>
<path d="M119.21 34.1974C129.239 34.1974 137.368 26.542 137.368 17.0987C137.368 7.65534 129.239 0 119.21 0C109.182 0 101.052 7.65534 101.052 17.0987C101.052 26.542 109.182 34.1974 119.21 34.1974Z" fill="#F45D48"/>
<path d="M117.411 23.6216C117.002 23.6223 116.604 23.4979 116.278 23.2672L116.257 23.2528L111.99 20.1763C111.791 20.034 111.625 19.8563 111.499 19.6532C111.374 19.4501 111.292 19.2256 111.259 18.9928C111.226 18.7599 111.242 18.5231 111.306 18.296C111.37 18.069 111.481 17.8561 111.633 17.6696C111.785 17.483 111.974 17.3266 112.19 17.2091C112.406 17.0917 112.645 17.0155 112.892 16.9851C113.14 16.9547 113.391 16.9706 113.632 17.0318C113.873 17.0931 114.099 17.1985 114.296 17.3421L117.06 19.3378L123.592 11.3164C123.743 11.1304 123.932 10.9742 124.148 10.8569C124.363 10.7396 124.601 10.6635 124.848 10.6328C125.095 10.6021 125.346 10.6175 125.586 10.6781C125.827 10.7387 126.052 10.8433 126.25 10.986L126.209 11.0379L126.251 10.9867C126.649 11.2752 126.91 11.7007 126.976 12.1699C127.042 12.6392 126.907 13.1138 126.602 13.4897L118.919 22.9249C118.741 23.1423 118.513 23.3182 118.251 23.4391C117.99 23.5599 117.702 23.6223 117.411 23.6216Z" fill="white"/>
</svg>
