<svg width="644" height="461" viewBox="0 0 644 461" fill="none" xmlns="http://www.w3.org/2000/svg">
<g clip-path="url(#clip0_87_1418)">
<path d="M59.4312 460.28L59.4012 460.463C59.3655 460.285 59.3312 460.103 59.2986 459.923C59.239 459.633 59.1873 459.343 59.1386 459.051C57.2048 447.641 58.269 435.961 62.2389 425.024C63.002 422.889 63.8711 420.793 64.8462 418.736C68.5755 410.772 73.8623 403.532 80.4336 397.39C82.5672 395.343 85.0016 393.593 87.663 392.191C88.0538 391.997 88.4467 391.813 88.8483 391.643C91.3097 390.524 94.0809 390.148 96.7801 390.566C97.7606 390.739 98.7109 391.038 99.604 391.455C99.9172 391.597 100.219 391.754 100.515 391.921C102.319 393.03 103.859 394.476 105.04 396.169C106.22 397.861 107.015 399.764 107.374 401.758C107.887 404.732 107.769 407.772 107.029 410.704C106.965 410.984 106.897 411.263 106.824 411.541C106.299 413.495 105.639 415.415 104.849 417.289C96.9408 436.36 79.945 453.281 59.4312 460.28Z" fill="#F2F2F2"/>
<path d="M99.5512 391.516C93.3802 399.827 87.5508 408.349 82.063 417.082C76.5819 425.807 71.4592 434.719 66.695 443.818C64.0298 448.908 61.4811 454.05 59.049 459.244C58.7797 459.819 59.6881 460.319 59.9608 459.737C64.3044 450.465 69.018 441.357 74.1017 432.412C79.1823 423.476 84.6197 414.73 90.4139 406.172C93.6559 401.385 97.0056 396.664 100.463 392.009C100.85 391.488 99.9364 390.997 99.5512 391.516Z" fill="white"/>
<path d="M106.154 410.754C101.517 416.402 94.6913 420.11 87.1568 421.073C85.0548 421.342 82.9267 421.381 80.815 421.191C80.1394 421.131 80.1346 422.118 80.8045 422.177C88.6631 422.797 96.4652 420.486 102.517 415.747C104.215 414.417 105.741 412.907 107.066 411.246C107.472 410.74 106.557 410.251 106.154 410.754Z" fill="white"/>
<path d="M66.5479 441.394C65.4698 439.955 64.574 438.402 63.8787 436.769C62.2901 433.045 61.7262 429.006 62.2389 425.024C63.0019 422.889 63.8711 420.793 64.8462 418.736C64.9053 418.817 64.9408 418.911 64.9494 419.009C64.9579 419.107 64.9391 419.205 64.8948 419.293C64.2082 420.836 63.7145 422.449 63.4238 424.098C62.38 429.979 63.829 436.01 67.4617 440.905C67.5077 440.958 67.5382 441.022 67.5505 441.09C67.5627 441.157 67.5562 441.227 67.5316 441.291C67.491 441.377 67.4271 441.451 67.3463 441.507C67.2655 441.562 67.1707 441.597 67.0712 441.607C66.9717 441.617 66.8711 441.603 66.7793 441.566C66.6875 441.528 66.6077 441.469 66.5479 441.394Z" fill="white"/>
<path d="M87.8203 391.566C86.5511 396.306 86.929 401.302 88.8992 405.827C88.969 405.94 89.0835 406.023 89.2179 406.057C89.3523 406.092 89.4957 406.075 89.6171 406.011C89.7357 405.944 89.8222 405.836 89.8587 405.711C89.8952 405.586 89.8788 405.452 89.813 405.338C87.9682 401.045 87.6259 396.313 88.8354 391.826C88.8669 391.701 88.8455 391.57 88.7758 391.46C88.706 391.35 88.5935 391.27 88.4618 391.236C88.33 391.202 88.1895 391.218 88.0698 391.28C87.9501 391.341 87.8607 391.444 87.8202 391.566H87.8203Z" fill="white"/>
<path d="M59.3018 436.461L59.3657 436.636C59.246 436.494 59.1253 436.347 59.0075 436.203C58.8111 435.972 58.6214 435.737 58.4335 435.5C51.0659 426.238 46.2194 415.431 44.3141 404.017C43.9317 401.794 43.6626 399.56 43.5068 397.314C42.8619 388.637 43.9553 379.924 46.7305 371.624C47.6057 368.883 48.8938 366.272 50.5559 363.872C50.8058 363.53 51.0625 363.196 51.3341 362.872C52.9591 360.809 55.2267 359.269 57.8243 358.464C58.7782 358.19 59.768 358.041 60.7655 358.022C61.1136 358.012 61.4583 358.019 61.8031 358.039C63.9504 358.235 66.0313 358.845 67.9154 359.83C69.7996 360.815 71.4465 362.154 72.753 363.763C74.6811 366.174 76.0838 368.917 76.8812 371.835C76.9637 372.111 77.0414 372.388 77.1144 372.666C77.6179 374.625 77.9854 376.612 78.2146 378.616C80.6635 398.948 73.9991 421.332 59.3018 436.461Z" fill="#F2F2F2"/>
<path d="M60.7491 358.099C59.4036 368.146 58.465 378.23 57.9334 388.353C57.4041 398.466 57.2847 408.588 57.5751 418.72C57.7379 424.388 58.0294 430.051 58.4497 435.71C58.4962 436.336 59.5484 436.383 59.5014 435.749C58.7528 425.648 58.4128 415.53 58.4814 405.395C58.5517 395.27 59.0317 385.157 59.9215 375.056C60.4197 369.405 61.0461 363.766 61.8007 358.138C61.885 357.509 60.8331 357.472 60.7491 358.099V358.099Z" fill="white"/>
<path d="M76.1314 372.26C74.8244 379.281 70.6173 385.536 64.4224 389.67C62.6941 390.823 60.8291 391.784 58.8647 392.535C58.2367 392.776 58.7217 393.652 59.3442 393.413C66.6106 390.54 72.3746 385.097 75.3849 378.265C76.2292 376.349 76.8326 374.347 77.1831 372.299C77.2916 371.675 76.2392 371.64 76.1314 372.26V372.26Z" fill="white"/>
<path d="M56.2436 416.638C54.5754 415.832 53.0128 414.848 51.5874 413.704C48.3348 411.097 45.8337 407.766 44.3141 404.017C43.9317 401.794 43.6626 399.56 43.5068 397.314C43.5992 397.36 43.6773 397.427 43.7332 397.51C43.7892 397.593 43.8212 397.688 43.826 397.786C43.9826 399.451 44.3446 401.094 44.9045 402.681C46.8952 408.344 51.1675 413.054 56.8103 415.807C56.8775 415.834 56.9361 415.877 56.9805 415.932C57.0248 415.986 57.0535 416.05 57.0638 416.118C57.0702 416.212 57.0505 416.306 57.0064 416.39C56.9623 416.474 56.8955 416.546 56.8125 416.598C56.7296 416.651 56.6334 416.682 56.5336 416.689C56.4338 416.696 56.3338 416.678 56.2436 416.638Z" fill="white"/>
<path d="M50.3855 363.251C51.6109 368.001 54.4218 372.261 58.4091 375.41C58.5269 375.48 58.6693 375.503 58.8053 375.475C58.9413 375.447 59.0601 375.37 59.1358 375.26C59.2076 375.149 59.2311 375.016 59.2013 374.89C59.1715 374.763 59.0907 374.651 58.9758 374.579C55.2143 371.58 52.5661 367.539 51.4132 363.039C51.3793 362.915 51.2954 362.808 51.1791 362.741C51.0629 362.674 50.9233 362.652 50.79 362.679C50.6567 362.707 50.5399 362.782 50.4645 362.888C50.389 362.995 50.3607 363.125 50.3855 363.251L50.3855 363.251Z" fill="white"/>
<path d="M59.7572 460.402L59.9115 460.517C59.7291 460.457 59.5433 460.395 59.3609 460.333C59.0627 460.237 58.7681 460.135 58.4733 460.03C46.9431 455.945 36.6498 449.286 28.4856 440.63C26.886 438.95 25.3754 437.203 23.9536 435.389C18.4243 428.404 14.3387 420.511 11.9078 412.116C11.07 409.365 10.6554 406.515 10.6767 403.654C10.6907 403.24 10.7152 402.829 10.7574 402.418C10.9412 399.86 11.967 397.418 13.6934 395.429C14.3397 394.716 15.0881 394.091 15.9173 393.571C16.2048 393.387 16.4996 393.219 16.8012 393.061C18.7234 392.143 20.8271 391.607 22.9807 391.486C25.1343 391.365 27.2914 391.661 29.3169 392.358C32.3267 393.416 35.0848 395.019 37.4338 397.076C37.6617 397.266 37.8863 397.46 38.1074 397.658C39.6573 399.054 41.1091 400.543 42.4534 402.116C56.2003 418.011 63.4473 440.235 59.7572 460.402Z" fill="#F2F2F2"/>
<path d="M15.9478 393.644C20.5872 402.789 25.5913 411.76 30.9602 420.557C36.3256 429.346 42.0415 437.935 48.108 446.325C51.5023 451.019 55.0022 455.643 58.6077 460.199C59.0066 460.703 59.9204 460.212 59.5163 459.701C53.0811 451.567 46.9806 443.214 41.2147 434.64C35.4557 426.073 30.049 417.31 24.9946 408.35C22.167 403.337 19.4543 398.269 16.8564 393.146C16.5658 392.574 15.6582 393.073 15.9478 393.644Z" fill="white"/>
<path d="M37.0463 397.812C39.9794 404.388 40.029 411.782 37.1843 418.391C36.3907 420.235 35.3718 421.987 34.148 423.611C33.7574 424.131 34.6694 424.624 35.0566 424.109C39.5284 418.02 41.2573 410.525 39.868 403.249C39.4781 401.208 38.8361 399.216 37.955 397.314C37.6874 396.733 36.7805 397.235 37.0463 397.812Z" fill="white"/>
<path d="M45.7894 445.243C43.921 445.406 42.0387 445.365 40.1804 445.121C35.9421 444.567 31.9205 443.022 28.4856 440.63C26.8861 438.95 25.3754 437.203 23.9536 435.39C24.0578 435.382 24.1625 435.399 24.2572 435.441C24.3519 435.482 24.4335 435.546 24.4938 435.626C25.5827 436.95 26.8316 438.152 28.2155 439.206C33.1468 442.973 39.453 444.785 45.7894 444.256C45.8617 444.245 45.9358 444.252 46.0045 444.276C46.0733 444.299 46.1344 444.339 46.1821 444.391C46.2414 444.467 46.2785 444.555 46.2897 444.649C46.301 444.742 46.286 444.836 46.2463 444.922C46.2066 445.008 46.1435 445.083 46.0634 445.139C45.9832 445.196 45.8888 445.231 45.7894 445.243Z" fill="white"/>
<path d="M10.1759 403.216C13.938 406.6 18.7542 408.771 23.9235 409.412C24.2076 409.447 24.447 409.159 24.4497 408.918C24.4464 408.789 24.3899 408.665 24.2919 408.573C24.194 408.481 24.062 408.428 23.9235 408.425C19.0309 407.797 14.4776 405.729 10.9201 402.519C10.4323 402.078 9.6872 402.775 10.1759 403.216H10.1759Z" fill="white"/>
<path d="M131.584 330.32C132.612 329.66 133.472 328.797 134.106 327.791C134.739 326.785 135.129 325.662 135.248 324.499C135.368 323.337 135.214 322.164 134.798 321.063C134.382 319.963 133.713 318.961 132.839 318.129L136.145 248.966L119.314 250.736L120.292 318.388C118.897 319.857 118.126 321.754 118.125 323.72C118.123 325.686 118.891 327.584 120.283 329.055C121.675 330.526 123.594 331.467 125.677 331.7C127.76 331.934 129.862 331.443 131.584 330.32Z" fill="#FFB8B8"/>
<path d="M162.288 447.399L171.868 448.977L181.336 415.099L168.784 412.769L162.288 447.399Z" fill="#FFB8B8"/>
<path d="M188.778 460.358L158.672 455.397L160.717 444.495L179.191 447.539C180.719 447.791 182.178 448.322 183.487 449.103C184.795 449.883 185.927 450.897 186.817 452.088C187.707 453.278 188.339 454.621 188.675 456.04C189.012 457.459 189.047 458.926 188.778 460.358Z" fill="#2F2E41"/>
<path d="M135.996 451.893L145.722 451.892L150.349 416.731L135.994 416.732L135.996 451.893Z" fill="#FFB8B8"/>
<path d="M164.479 460.356L133.912 460.358L133.911 449.289L152.669 449.288C155.801 449.288 158.805 450.454 161.02 452.53C163.235 454.605 164.479 457.421 164.479 460.356L164.479 460.356Z" fill="#2F2E41"/>
<path d="M177.37 442.264C177.218 442.265 177.067 442.256 176.916 442.239L165.468 441.356C164.947 441.299 164.444 441.143 163.989 440.897C163.534 440.652 163.137 440.322 162.822 439.929C162.507 439.535 162.281 439.086 162.158 438.608C162.034 438.13 162.015 437.633 162.102 437.148L172.673 381.619L165.53 346.32C165.472 346.033 165.305 345.776 165.06 345.595C164.816 345.415 164.509 345.324 164.198 345.338C163.887 345.353 163.592 345.472 163.368 345.674C163.143 345.877 163.004 346.148 162.977 346.439L154.047 440.593C153.949 441.538 153.463 442.41 152.692 443.025C151.921 443.641 150.925 443.952 149.914 443.892L139.129 443.516C138.184 443.453 137.296 443.068 136.633 442.434C135.97 441.799 135.577 440.959 135.53 440.072L134.805 327.226L190.72 320.675L194.626 377.215L194.611 377.275L181.131 439.491C180.926 440.281 180.444 440.984 179.762 441.487C179.08 441.99 178.238 442.264 177.37 442.264Z" fill="#2F2E41"/>
<path d="M153.24 204.147C164.001 204.147 172.725 195.971 172.725 185.885C172.725 175.799 164.001 167.622 153.24 167.622C142.479 167.622 133.755 175.799 133.755 185.885C133.755 195.971 142.479 204.147 153.24 204.147Z" fill="#FFB8B8"/>
<path d="M171.6 335.473C168.552 335.49 165.564 334.689 162.987 333.164C153.548 327.635 142.828 329.832 137.277 331.635C136.726 331.815 136.139 331.877 135.559 331.815C134.979 331.753 134.422 331.569 133.929 331.277C133.441 330.99 133.029 330.603 132.724 330.146C132.418 329.689 132.227 329.173 132.164 328.636L122.071 244.15C120.379 229.995 129.477 216.686 143.703 212.505C144.238 212.348 144.781 212.199 145.334 212.058C149.761 210.933 154.397 210.731 158.916 211.466C163.436 212.201 167.728 213.856 171.492 216.313C175.325 218.797 178.532 222.039 180.884 225.81C183.237 229.58 184.68 233.789 185.111 238.138L193.608 323.191C193.666 323.741 193.586 324.297 193.376 324.814C193.166 325.331 192.831 325.795 192.396 326.17C189.418 328.753 180.773 335.472 171.6 335.473Z" fill="#F45D48"/>
<path d="M140.865 262.268L118.094 259.921C117.446 259.854 116.821 259.657 116.261 259.344C115.702 259.03 115.221 258.607 114.852 258.104C114.483 257.601 114.233 257.029 114.121 256.427C114.009 255.825 114.037 255.208 114.202 254.617L119.998 233.912C120.382 230.807 122.063 227.971 124.674 226.026C127.284 224.081 130.611 223.186 133.925 223.537C137.239 223.887 140.269 225.455 142.352 227.897C144.434 230.338 145.398 233.454 145.033 236.561L145.894 257.883C145.918 258.493 145.802 259.101 145.553 259.666C145.304 260.23 144.928 260.738 144.451 261.154C143.973 261.57 143.406 261.885 142.787 262.077C142.169 262.27 141.513 262.334 140.865 262.268V262.268Z" fill="#F45D48"/>
<path d="M193.517 327.359C194.452 326.587 195.195 325.633 195.695 324.563C196.194 323.493 196.437 322.334 196.406 321.166C196.375 319.999 196.072 318.852 195.517 317.806C194.962 316.761 194.17 315.842 193.195 315.114L187.584 246.082L171.091 249.561L180.772 316.789C179.577 318.404 179.056 320.375 179.307 322.327C179.558 324.278 180.564 326.076 182.135 327.379C183.706 328.682 185.732 329.4 187.83 329.396C189.928 329.392 191.951 328.667 193.517 327.359V327.359Z" fill="#FFB8B8"/>
<path d="M164.768 257.928C164.291 257.512 163.915 257.004 163.666 256.44C163.417 255.875 163.301 255.267 163.326 254.656L164.186 233.335C163.821 230.228 164.785 227.112 166.868 224.671C168.95 222.229 171.98 220.661 175.294 220.311C178.608 219.96 181.935 220.855 184.546 222.8C187.156 224.745 188.838 227.581 189.221 230.686L195.017 251.391C195.183 251.982 195.21 252.599 195.098 253.201C194.986 253.803 194.737 254.375 194.367 254.878C193.998 255.381 193.517 255.804 192.958 256.118C192.398 256.431 191.774 256.628 191.126 256.695L168.354 259.042C167.706 259.109 167.05 259.044 166.432 258.852C165.813 258.66 165.245 258.344 164.768 257.928Z" fill="#F45D48"/>
<path d="M152.081 204.835C151.735 204.835 151.39 204.797 151.053 204.723L150.954 204.7C133.822 202.244 130.036 192.943 129.205 189.059C128.345 185.038 129.324 181.157 131.537 179.649C130.331 176.078 130.524 172.912 132.114 170.234C134.887 165.565 140.905 163.986 141.712 163.793C146.519 160.469 152.269 162.688 153.315 163.138C162.612 159.914 166.165 162.597 166.808 163.196C170.964 163.896 173.497 165.401 174.338 167.669C175.917 171.931 170.922 177.231 170.709 177.455L170.598 177.571L163.156 177.903C162.45 177.934 161.759 178.105 161.128 178.403C160.496 178.701 159.939 179.12 159.491 179.633C159.044 180.146 158.716 180.741 158.53 181.381C158.344 182.02 158.304 182.688 158.411 183.343C158.612 184.188 158.867 185.021 159.173 185.838C160.444 189.561 161.396 192.741 160.168 193.95C159.89 194.184 159.547 194.34 159.179 194.399C158.81 194.459 158.431 194.421 158.085 194.288C156.922 193.997 156.132 194.058 155.738 194.47C155.127 195.109 155.314 196.726 156.263 199.025C156.561 199.751 156.642 200.541 156.495 201.307C156.349 202.073 155.982 202.788 155.434 203.372C155.021 203.829 154.507 204.196 153.929 204.448C153.35 204.701 152.72 204.833 152.081 204.835Z" fill="#2F2E41"/>
<path d="M382.198 263.216H286.205C282.629 263.212 279.201 261.879 276.672 259.51C274.144 257.14 272.722 253.927 272.718 250.576V115.375C272.722 112.024 274.144 108.811 276.672 106.441C279.201 104.072 282.629 102.739 286.205 102.735H382.198C385.774 102.739 389.202 104.072 391.731 106.441C394.259 108.811 395.681 112.024 395.685 115.375V250.576C395.681 253.927 394.259 257.14 391.731 259.51C389.202 261.879 385.774 263.212 382.198 263.216ZM286.205 104.222C283.05 104.225 280.025 105.401 277.794 107.492C275.563 109.583 274.308 112.418 274.304 115.375V250.576C274.308 253.533 275.563 256.368 277.794 258.459C280.025 260.549 283.05 261.726 286.205 261.729H382.198C385.353 261.726 388.378 260.549 390.609 258.459C392.84 256.368 394.095 253.533 394.098 250.576V115.375C394.095 112.418 392.84 109.583 390.609 107.492C388.378 105.401 385.353 104.225 382.198 104.222H286.205Z" fill="#3F3D56"/>
<path d="M367.522 167.733H300.881C299.093 167.731 297.379 167.065 296.115 165.88C294.851 164.695 294.14 163.089 294.138 161.413V131.671C294.14 129.995 294.851 128.389 296.115 127.204C297.379 126.019 299.093 125.353 300.881 125.351H367.522C369.309 125.353 371.023 126.019 372.288 127.204C373.552 128.389 374.263 129.995 374.265 131.671V161.413C374.263 163.089 373.552 164.695 372.288 165.88C371.023 167.065 369.309 167.731 367.522 167.733Z" fill="#F45D48"/>
<path d="M362.762 195.616H305.641C303.958 195.616 302.344 194.989 301.154 193.874C299.963 192.758 299.295 191.245 299.295 189.668C299.295 188.09 299.963 186.577 301.154 185.461C302.344 184.346 303.958 183.719 305.641 183.719H362.762C364.445 183.719 366.059 184.346 367.25 185.461C368.44 186.577 369.108 188.09 369.108 189.668C369.108 191.245 368.44 192.758 367.25 193.874C366.059 194.989 364.445 195.616 362.762 195.616Z" fill="#CCCCCC"/>
<path d="M362.762 217.922H305.641C303.958 217.922 302.344 217.296 301.154 216.18C299.963 215.065 299.295 213.552 299.295 211.974C299.295 210.396 299.963 208.883 301.154 207.768C302.344 206.652 303.958 206.026 305.641 206.026H362.762C364.445 206.026 366.059 206.652 367.25 207.768C368.44 208.883 369.108 210.396 369.108 211.974C369.108 213.552 368.44 215.065 367.25 216.18C366.059 217.296 364.445 217.922 362.762 217.922Z" fill="#CCCCCC"/>
<path d="M362.762 240.229H305.641C303.958 240.229 302.344 239.602 301.154 238.487C299.963 237.371 299.295 235.858 299.295 234.28C299.295 232.703 299.963 231.19 301.154 230.074C302.344 228.959 303.958 228.332 305.641 228.332H362.762C364.445 228.332 366.059 228.959 367.25 230.074C368.44 231.19 369.108 232.703 369.108 234.28C369.108 235.858 368.44 237.371 367.25 238.487C366.059 239.602 364.445 240.229 362.762 240.229Z" fill="#CCCCCC"/>
<path d="M387.752 123.429C397.829 123.429 405.999 115.772 405.999 106.327C405.999 96.8825 397.829 89.2258 387.752 89.2258C377.674 89.2258 369.505 96.8825 369.505 106.327C369.505 115.772 377.674 123.429 387.752 123.429Z" fill="#F45D48"/>
<path d="M385.943 112.851C385.533 112.852 385.133 112.728 384.804 112.497L384.784 112.483L380.496 109.405C380.296 109.263 380.129 109.085 380.003 108.882C379.876 108.679 379.794 108.455 379.761 108.222C379.728 107.989 379.744 107.752 379.808 107.525C379.873 107.298 379.985 107.085 380.137 106.898C380.29 106.712 380.48 106.555 380.697 106.438C380.914 106.32 381.154 106.244 381.403 106.214C381.651 106.183 381.904 106.199 382.146 106.26C382.388 106.322 382.615 106.427 382.813 106.571L385.591 108.567L392.154 100.544C392.307 100.358 392.497 100.202 392.713 100.084C392.93 99.9672 393.169 99.891 393.417 99.8603C393.665 99.8296 393.917 99.845 394.159 99.9057C394.4 99.9663 394.627 100.071 394.826 100.214L394.785 100.266L394.827 100.214C395.227 100.503 395.489 100.928 395.555 101.398C395.621 101.867 395.486 102.342 395.179 102.718L387.459 112.154C387.28 112.372 387.051 112.548 386.788 112.669C386.525 112.79 386.236 112.852 385.943 112.851Z" fill="white"/>
<path d="M303.055 461H0.793338C0.582932 461 0.381142 460.922 0.232363 460.782C0.083583 460.643 0 460.454 0 460.256C0 460.059 0.083583 459.87 0.232363 459.731C0.381142 459.591 0.582932 459.513 0.793338 459.513H303.055C303.266 459.513 303.467 459.591 303.616 459.731C303.765 459.87 303.848 460.059 303.848 460.256C303.848 460.454 303.765 460.643 303.616 460.782C303.467 460.922 303.266 461 303.055 461Z" fill="#3F3D56"/>
</g>
<defs>
<clipPath id="clip0_87_1418">
<rect width="644" height="461" fill="white"/>
</clipPath>
</defs>
</svg>
