<svg width="30" height="30" viewBox="0 0 30 30" fill="none" xmlns="http://www.w3.org/2000/svg">
<path d="M29.3976 12.2812H15.2853V18.082H23.3472C22.9996 19.957 21.945 21.543 20.3553 22.6055C19.0116 23.5039 17.2969 24.0352 15.2814 24.0352C11.3793 24.0352 8.07879 21.3984 6.89919 17.8555C6.60233 16.957 6.43047 15.9961 6.43047 15.0078C6.43047 14.0195 6.60233 13.0586 6.89919 12.1602C8.08269 8.62109 11.3832 5.98438 15.2853 5.98438C17.4844 5.98438 19.4569 6.74219 21.0115 8.22656L25.308 3.92578C22.7106 1.50391 19.3241 0.0195312 15.2853 0.0195312C9.43025 0.0195312 4.36421 3.37891 1.89954 8.27734C0.883992 10.3008 0.305908 12.5898 0.305908 15.0117C0.305908 17.4336 0.883992 19.7187 1.89954 21.7422C4.36421 26.6406 9.43025 30 15.2853 30C19.3319 30 22.7223 28.6562 25.1987 26.3672C28.0305 23.7578 29.6671 19.9141 29.6671 15.3477C29.6671 14.2852 29.5733 13.2656 29.3976 12.2812Z" fill="#232323"/>
</svg>
