<svg width="28" height="34" viewBox="0 0 28 34" fill="none" xmlns="http://www.w3.org/2000/svg">
<path d="M23.1873 17.9258C23.1717 15.2617 24.3786 13.2539 26.816 11.7734C25.4528 9.82031 23.3904 8.74609 20.6719 8.53906C18.0978 8.33594 15.2816 10.0391 14.2505 10.0391C13.1607 10.0391 10.6687 8.60938 8.7079 8.60938C4.66131 8.67188 0.36084 11.8359 0.36084 18.2734C0.36084 20.1758 0.708471 22.1406 1.40373 24.1641C2.33335 26.8281 5.68468 33.3555 9.18052 33.25C11.0085 33.207 12.3014 31.9531 14.6801 31.9531C16.9886 31.9531 18.1838 33.25 20.2227 33.25C23.7498 33.1992 26.7808 27.2656 27.6636 24.5938C22.9334 22.3633 23.1873 18.0625 23.1873 17.9258V17.9258ZM19.0822 6.01172C21.0625 3.66016 20.8828 1.51953 20.8242 0.75C19.0743 0.851562 17.051 1.94141 15.8988 3.28125C14.6293 4.71875 13.8833 6.49609 14.0435 8.5C15.9339 8.64453 17.6604 7.67187 19.0822 6.01172V6.01172Z" fill="#232323"/>
</svg>
