<svg width="600" height="132" viewBox="0 0 600 132" fill="none" xmlns="http://www.w3.org/2000/svg">
<path d="M37.8601 77.1153C58.7697 77.1153 75.7202 59.8525 75.7202 38.5577C75.7202 17.2628 58.7697 0 37.8601 0C16.9506 0 0 17.2628 0 38.5577C0 59.8525 16.9506 77.1153 37.8601 77.1153Z" fill="#F45D48"/>
<path d="M75.5983 131.245C64.602 131.245 53.8527 127.925 44.7096 121.703C35.5665 115.481 28.4403 106.638 24.2322 96.2913C20.0241 85.9448 18.9231 74.5599 21.0683 63.5762C23.2136 52.5925 28.5088 42.5033 36.2844 34.5844C44.06 26.6656 53.9666 21.2728 64.7516 19.088C75.5367 16.9032 86.7156 18.0245 96.8749 22.3102C107.034 26.5958 115.717 33.8533 121.827 43.1648C127.936 52.4764 131.197 63.4238 131.197 74.6227C131.18 89.6348 125.317 104.027 114.894 114.642C104.471 125.257 90.3388 131.228 75.5983 131.245ZM75.5983 19.3017C64.8548 19.3017 54.3526 22.5462 45.4197 28.625C36.4868 34.7037 29.5244 43.3437 25.413 53.4523C21.3017 63.5609 20.2259 74.6841 22.3219 85.4153C24.4179 96.1466 29.5913 106.004 37.1882 113.741C44.785 121.477 54.4639 126.746 65.001 128.881C75.5381 131.015 86.4601 129.92 96.3858 125.733C106.311 121.546 114.795 114.455 120.764 105.357C126.733 96.26 129.919 85.5642 129.919 74.6227C129.902 59.9558 124.174 45.8943 113.991 35.5232C103.807 25.1521 90 19.3183 75.5983 19.3017V19.3017Z" fill="#3F3D56"/>
<path d="M599.432 75.1803H131V76.482H599.432V75.1803Z" fill="#3F3D56"/>
<path d="M190.323 68.3184H172.429V86.5417H190.323V68.3184Z" fill="#078080"/>
<path d="M201.187 76.1284H179.459V54H201.187V76.1284ZM180.404 75.1663H200.243V54.9621H180.404V75.1663Z" fill="#3F3D56"/>
<path d="M578.233 68.3184H560.34V86.5417H578.233V68.3184Z" fill="#F45D48"/>
<path d="M589.097 76.1284H567.369V54H589.097V76.1284ZM568.314 75.1663H588.153V54.9621H568.314V75.1663Z" fill="#3F3D56"/>
</svg>
