<svg viewBox="0 0 211 212" fill="none" xmlns="http://www.w3.org/2000/svg">
<path d="M101.934 206.289C58.0168 206.289 11.726 175.895 5.79126 112.379H43.18M101.934 112.379L43.18 112.379M43.18 112.379L43.18 187.998" stroke="#F45D48" stroke-width="10"/>
<path d="M5 96.7925C4.99999 54.3188 33.597 16.3262 98.0878 6V42.8236M98.0878 96.7925V42.8236M98.0878 42.8236H23.6785M112.418 96.7925V42.8236M112.418 42.8236V6C136.355 8.53284 164.723 15.391 184.822 42.8236H112.418ZM112.418 42.8236C141.762 43.0184 196.098 47.8893 205 96.7925M108.462 205.899C145.653 205.899 170.612 186.371 184.822 166.549M108.462 112.574H205C203.881 126.679 198.193 147.897 184.822 166.549M184.822 166.549H108.462" stroke="#F45D48" stroke-width="10"/>
</svg>
